<svg xmlns="http://www.w3.org/2000/svg" xmlns:xlink="http://www.w3.org/1999/xlink" viewBox="0 0 227.24 325.87"><defs>
<style>.cls-1{fill:url(#New_Gradient_Swatch_1); opacity: 40%;}</style>
<linearGradient id="New_Gradient_Swatch_1" x1="113.62" y1="325.87" x2="113.62" gradientUnits="userSpaceOnUse" opacity=".5">
<stop offset="0" stop-color="#fff" transparency="30%"/>
<stop offset="0" stop-color="#063" opacity="30%"/>
<stop offset="1" stop-color="#2fac66" opacity=".5"/>
</linearGradient></defs>
<title>leaf2</title>
<g id="Layer_2" data-name="Layer 2">
<g id="Layer_4" data-name="Layer 4">
<path class="cls-1" d="M227.24,269.27c-1.34-11.64-2.82-22.59-4.42-32.95a69.61,69.61,0,0,1-16.54,8.57,163.21,163.21,0,0,1-39.23,9.67c-4.31.5-8.75.83-12.92-.37s-8.06-4.21-9.17-8.4c-.58-2.18-.26-4.77,1.44-6.24a8.77,8.77,0,0,1,3.53-1.58l29.16-8.16c9.66-2.7,19.53-5.5,27.72-11.28a35.37,35.37,0,0,0,10.78-12c-3-15.12-6.25-28.72-9.69-41.05-3.2,7.45-8.51,12.73-15,17.55-4.25,3.14-19.76,5.44-24.28,6.18s-19.78,2.89-21.84-1.15,1.41-10.7,2.86-12.39c10.31-12,22.41-8.37,36.08-22.47,4.78-4.93,8.91-18.1,10.53-22.92-6.48-17.07-13-33.66-19.51-46a32.71,32.71,0,0,1-2.47,2.26c-3.4,1.76-9.95,5-13.72,5.62a31.7,31.7,0,0,0-19.44,10.46c-3.9,4.16-5.85,8.19-11.33,9.73-3.77,1-8.7-1.84-8.89-5.43-.41-7.89,19.58-27.66,30.07-37.09a41.09,41.09,0,0,0,9.37-12.51c-10-16.11-20.72-29.57-33.73-40.27a37.29,37.29,0,0,0-14.15,20c-1.23,4.46-1.62,9.17-3.49,13.4-.7,1.57-1.71,3.16-3.32,3.75-2.36.86-5-.89-6.06-3.17s-.84-4.92-.59-7.42C100.3,30.48,103.09,17,109.33,5.36l-1-.55C99.34-.07,88-1,78.35.9,71.21,2.28,64.81,6.25,59.08,11.78c7.32,5.78,12.36,14.84,14.79,24,.71,2.69,1.09,6-.92,7.87s-5,1.41-7.11,0-3.49-3.72-4.94-5.83c-3.41-5-7.71-9.5-13.06-12.18A155.2,155.2,0,0,0,37.78,43.58Q31.89,55.73,26.82,68a62.93,62.93,0,0,0,4.65,7.57c7.09,9.91,16.59,17.82,26.41,25,3.71,2.72,7.81,5.89,8.39,10.46.66,5.16-3.89,9.91-9,11s-10.36-.7-14.93-3.18c-10.76-5.84-18.72-15.29-24.85-26A352.55,352.55,0,0,0,6.38,133.82c17.1,32.79,30.34,42.66,44.62,56.34,7.87,7.54-6.1,11.87-10.69,11.07-14.75-2.58-23.92-9.8-33.66-21.17-2.05-2.4-4-4.89-5.79-7.46a276.16,276.16,0,0,0,4,73.82c8,4.18,16.71,6.7,25.75,6.5,8-.18,15.71-2.46,23.34-4.72l24.15-7.14c2.13-.63,4.52-1.24,6.48-.19s2.9,3.83,2.43,6.15a13.31,13.31,0,0,1-3.54,6C73.36,264.24,58.15,269.34,43.29,272c-9.4,1.67-19.07,2.53-28.47.84-1.23-.22-2.47-.49-3.69-.81q3,10.19,6.86,20.38c.47,1.23,7.12,21.24,11,24s11.41-1.88,12.51-2.48c24.2-13.26,44.12-28.16,66.65-45.66.71,5.91,1.34,11.62,2.05,17.53,1.56,13.08.89,11.1,3,24.09,0,.33,2.59,16,2.59,16s7.38-1.83,7.59-2c0-.2-6.15-38.28-8-59.17C152.19,273.69,215.17,275.71,227.24,269.27ZM50.36,154c-1.06-1.78-2.53-7-1.17-9.81A12.19,12.19,0,0,1,55,138.54c1.89-.81,5.65-1.19,7.92.15,3.34,2,5.77,3.26,8.18,6.29s3.71,7.17,2.59,10.87-4.24,6.21-7.6,7.88a8.22,8.22,0,0,1-5.85.87C57.19,163.82,51.55,156,50.36,154Zm28.3,30.68c-.35,2.06-2.33,4.62-5.59,2.69-5.11-2.72-9.46-4.85-13.58-8.92-1.4-1.38-2.83-3.25-2.22-5.12.51-1.55,2.22-2.33,3.8-2.75a9.46,9.46,0,0,1,4.6-.26c1.49.37,6.44,4,7.64,4.95C75,176.55,79.32,180.83,78.66,184.69ZM81,225.59c-1.1,3.19-4.67,4.58-8.26,5.95s-8.92,1-13.86.33c-1.49-.19-10.54-4-11.17-7.17a6,6,0,0,1,.63-3.72c2.06-4.4,7.3-7.46,12.85-8a23.16,23.16,0,0,1,15.52,4.24C79.58,219.27,82,222.49,81,225.59ZM77.19,85.33c-3,.93-6.4-.22-8.88-2.2s-5.22-2.41-6.49-6.44a5.1,5.1,0,0,1,2-5.21c3.2-2.22,7.64-2.85,11-1a17.39,17.39,0,0,1,4.87,4.73A10,10,0,0,1,81.43,78C82.5,80.94,80.22,84.41,77.19,85.33Zm37.58-5.49c-3.35.77-7.2-2.49-7.23-4.8s1.54-6.55,3.18-9.28a15.24,15.24,0,0,1,6.91-6.36,4.86,4.86,0,0,1,3.07-.58c4.46,1.21,2.65,11.05,1.33,14.23S118.13,79.07,114.77,79.84Zm5.46,72.75c-.29-8.15,8.45-16.53,12.64-19.82s13.5,1.31,14.1,7.56c.72,7.51-4.44,17.75-8.84,22.59-1.22,1.34-4.1,3.35-6.45,2.9C129.9,165.48,120.53,160.74,120.23,152.59Zm7.88,66c-2.53-5.82,9.72-12.39,15.35-12.6a25.88,25.88,0,0,1,5.93.68c3.9.75,13.33,3.35,14.8,6.5,2.58,5.51-10.68,9.48-12.92,10.42a22.25,22.25,0,0,1-11.89.92C135.3,223.72,129.14,220.93,128.11,218.56Z"/>
</g></g></svg>