<svg xmlns="http://www.w3.org/2000/svg" xmlns:xlink="http://www.w3.org/1999/xlink" viewBox="0 0 814.51 563.95"><defs><style>.cls-1,.cls-3{fill:none;}.cls-2{fill:#231f20;}.cls-3{stroke:#000;stroke-miterlimit:10;stroke-width:2px;}.cls-4{fill:url(#USGS_20_Scrub);}</style><pattern id="USGS_20_Scrub" data-name="USGS 20 Scrub" width="72" height="72" patternUnits="userSpaceOnUse" viewBox="0 0 72 72"><rect class="cls-1" width="72" height="72"/><path class="cls-2" d="M17,74.55a1.3,1.3,0,0,1-.92-2.22,1.36,1.36,0,0,1,1.84,0,1.3,1.3,0,0,1,0,1.84A1.3,1.3,0,0,1,17,74.55Z"/><path class="cls-2" d="M27.75,74.55a1.3,1.3,0,0,1-.92-2.22,1.36,1.36,0,0,1,1.84,0,1.3,1.3,0,0,1-.92,2.22Z"/><path class="cls-2" d="M23.25,7.05a1.34,1.34,0,0,1-.92-.38,1.3,1.3,0,0,1,0-1.84,1.36,1.36,0,0,1,1.84,0,1.32,1.32,0,0,1,.38.92,1.34,1.34,0,0,1-.38.92A1.32,1.32,0,0,1,23.25,7.05Z"/><path class="cls-2" d="M14.5,9.05a1.3,1.3,0,0,1-.92-2.22,1.36,1.36,0,0,1,1.84,0,1.34,1.34,0,0,1,.38.92,1.32,1.32,0,0,1-.38.92A1.3,1.3,0,0,1,14.5,9.05Z"/><path class="cls-2" d="M14.75,4.8a1.34,1.34,0,0,1-.92-.38,1.3,1.3,0,0,1,0-1.84,1.35,1.35,0,0,1,1.84,0,1.34,1.34,0,0,1,.38.92,1.3,1.3,0,0,1-1.3,1.3Z"/><path class="cls-2" d="M17.75,8.8a1.3,1.3,0,0,1-.92-2.22,1.36,1.36,0,0,1,1.84,0,1.3,1.3,0,0,1-.92,2.22Z"/><path class="cls-2" d="M20,5.3a1.34,1.34,0,0,1-.92-.38,1.3,1.3,0,0,1,0-1.84,1.36,1.36,0,0,1,1.84,0A1.3,1.3,0,0,1,20,5.3Z"/><path class="cls-2" d="M29,6.3a1.34,1.34,0,0,1-.92-.38,1.3,1.3,0,0,1,0-1.84,1.36,1.36,0,0,1,1.84,0A1.3,1.3,0,0,1,29,6.3Z"/><path class="cls-2" d="M25,4.55a1.34,1.34,0,0,1-.92-.38,1.3,1.3,0,0,1,0-1.84,1.35,1.35,0,0,1,1.84,0A1.3,1.3,0,0,1,25,4.55Z"/><path class="cls-2" d="M17,2.55a1.32,1.32,0,0,1-.92-.38,1.32,1.32,0,0,1-.38-.92,1.32,1.32,0,0,1,.38-.92,1.36,1.36,0,0,1,1.84,0,1.32,1.32,0,0,1,.38.92,1.32,1.32,0,0,1-.38.92A1.3,1.3,0,0,1,17,2.55Z"/><path class="cls-2" d="M27.75,2.55a1.34,1.34,0,0,1-.92-.38,1.34,1.34,0,0,1-.38-.92,1.34,1.34,0,0,1,.38-.92,1.36,1.36,0,0,1,1.84,0,1.32,1.32,0,0,1,.38.92,1.32,1.32,0,0,1-.38.92A1.32,1.32,0,0,1,27.75,2.55Z"/><path class="cls-2" d="M31.75,3.55a1.34,1.34,0,0,1-.92-.38,1.3,1.3,0,0,1,0-1.84,1.36,1.36,0,0,1,1.84,0,1.3,1.3,0,0,1,0,1.84A1.32,1.32,0,0,1,31.75,3.55Z"/><path class="cls-2" d="M29,6.3a1.34,1.34,0,0,1-.92-.38,1.3,1.3,0,0,1,0-1.84,1.36,1.36,0,0,1,1.84,0A1.3,1.3,0,0,1,29,6.3Z"/><path class="cls-2" d="M28.25,9.05a1.3,1.3,0,0,1-.92-2.22,1.35,1.35,0,0,1,1.84,0,1.3,1.3,0,0,1-.92,2.22Z"/><path class="cls-2" d="M26.25,12.05a1.3,1.3,0,0,1-.92-2.22,1.36,1.36,0,0,1,1.84,0,1.3,1.3,0,0,1,0,1.84A1.32,1.32,0,0,1,26.25,12.05Z"/><path class="cls-2" d="M22.25,10.3a1.34,1.34,0,0,1-.92-.38,1.3,1.3,0,0,1,0-1.84,1.36,1.36,0,0,1,1.84,0,1.3,1.3,0,0,1-.92,2.22Z"/><path class="cls-2" d="M22,13.8a1.34,1.34,0,0,1-.92-.38,1.3,1.3,0,0,1,0-1.84,1.36,1.36,0,0,1,1.84,0A1.3,1.3,0,0,1,22,13.8Z"/><path class="cls-2" d="M17,12.8a1.34,1.34,0,0,1-.92-.38,1.3,1.3,0,0,1,0-1.84,1.36,1.36,0,0,1,1.84,0A1.3,1.3,0,0,1,17,12.8Z"/><path class="cls-2" d="M20.25,16.05a1.34,1.34,0,0,1-.92-.38,1.3,1.3,0,0,1,0-1.84,1.36,1.36,0,0,1,1.84,0,1.3,1.3,0,0,1-.92,2.22Z"/><path class="cls-2" d="M22.75,19.8a1.34,1.34,0,0,1-.92-.38,1.3,1.3,0,0,1,0-1.84,1.36,1.36,0,0,1,1.84,0,1.3,1.3,0,0,1-.92,2.22Z"/><path class="cls-2" d="M25.5,20.55a1.3,1.3,0,0,1-1.3-1.3,1.34,1.34,0,0,1,.38-.92,1.36,1.36,0,0,1,1.84,0,1.34,1.34,0,0,1,.38.92,1.3,1.3,0,0,1-1.3,1.3Z"/><path class="cls-2" d="M28.5,18.8a1.3,1.3,0,0,1-.92-2.22,1.36,1.36,0,0,1,1.84,0,1.3,1.3,0,0,1,0,1.84A1.3,1.3,0,0,1,28.5,18.8Z"/><path class="cls-2" d="M28,15.55a1.3,1.3,0,0,1-.92-2.22,1.36,1.36,0,0,1,1.84,0A1.3,1.3,0,0,1,28,15.55Z"/><path class="cls-2" d="M30,13.3a1.3,1.3,0,0,1-.92-2.22,1.36,1.36,0,0,1,1.84,0,1.3,1.3,0,0,1,0,1.84A1.3,1.3,0,0,1,30,13.3Z"/><path class="cls-2" d="M34.25,13.3a1.3,1.3,0,0,1-.92-2.22,1.36,1.36,0,0,1,1.84,0,1.3,1.3,0,0,1-.92,2.22Z"/><path class="cls-2" d="M32.5,18.05a1.34,1.34,0,0,1-.92-.38,1.3,1.3,0,0,1,0-1.84,1.35,1.35,0,0,1,1.84,0,1.3,1.3,0,0,1-.92,2.22Z"/><path class="cls-2" d="M34.75,21.55a1.3,1.3,0,0,1-.92-2.22,1.36,1.36,0,0,1,1.84,0,1.34,1.34,0,0,1,.38.92,1.3,1.3,0,0,1-1.3,1.3Z"/><path class="cls-2" d="M31.25,21.8a1.3,1.3,0,0,1-.92-2.22,1.36,1.36,0,0,1,1.84,0,1.3,1.3,0,0,1,0,1.84A1.3,1.3,0,0,1,31.25,21.8Z"/><path class="cls-2" d="M27.75,22.55a1.34,1.34,0,0,1-.92-.38,1.32,1.32,0,0,1-.38-.92,1.34,1.34,0,0,1,.38-.92,1.36,1.36,0,0,1,1.84,0,1.3,1.3,0,0,1-.92,2.22Z"/><path class="cls-2" d="M37.25,17.05a1.3,1.3,0,0,1-.92-2.22,1.36,1.36,0,0,1,1.84,0,1.3,1.3,0,0,1,0,1.84A1.32,1.32,0,0,1,37.25,17.05Z"/><path class="cls-2" d="M32,9.8a1.3,1.3,0,0,1-.92-2.22,1.36,1.36,0,0,1,1.84,0,1.3,1.3,0,0,1,0,1.84A1.3,1.3,0,0,1,32,9.8Z"/><path class="cls-2" d="M34,6.8a1.3,1.3,0,0,1-.92-2.22,1.36,1.36,0,0,1,1.84,0,1.3,1.3,0,0,1,0,1.84A1.3,1.3,0,0,1,34,6.8Z"/><path class="cls-2" d="M36.75,3.3A1.3,1.3,0,0,1,35.45,2a1.32,1.32,0,0,1,.38-.92,1.36,1.36,0,0,1,1.84,0,1.3,1.3,0,0,1,0,1.84A1.32,1.32,0,0,1,36.75,3.3Z"/><path class="cls-2" d="M37.5,6.55a1.3,1.3,0,0,1-.92-2.22,1.35,1.35,0,0,1,1.84,0,1.3,1.3,0,0,1,0,1.84A1.32,1.32,0,0,1,37.5,6.55Z"/><path class="cls-2" d="M37.25,9.55a1.34,1.34,0,0,1-.92-.38,1.3,1.3,0,0,1,0-1.84,1.36,1.36,0,0,1,1.84,0,1.3,1.3,0,0,1,0,1.84A1.32,1.32,0,0,1,37.25,9.55Z"/><path class="cls-2" d="M37.5,13.3a1.3,1.3,0,0,1-.92-2.22,1.36,1.36,0,0,1,1.84,0,1.3,1.3,0,0,1,0,1.84A1.32,1.32,0,0,1,37.5,13.3Z"/><path class="cls-2" d="M41,5.05a1.34,1.34,0,0,1-.92-.38,1.3,1.3,0,0,1,0-1.84,1.36,1.36,0,0,1,1.84,0A1.3,1.3,0,0,1,41,5.05Z"/><path class="cls-2" d="M41.75,8.8a1.34,1.34,0,0,1-.92-.38,1.3,1.3,0,0,1,0-1.84,1.36,1.36,0,0,1,1.84,0,1.3,1.3,0,0,1-.92,2.22Z"/><path class="cls-2" d="M41.25,12.8a1.34,1.34,0,0,1-.92-.38,1.3,1.3,0,0,1,0-1.84,1.35,1.35,0,0,1,1.84,0,1.32,1.32,0,0,1,.38.92,1.34,1.34,0,0,1-.38.92A1.32,1.32,0,0,1,41.25,12.8Z"/><path class="cls-2" d="M41.5,17.3a1.34,1.34,0,0,1-.92-.38,1.3,1.3,0,0,1,0-1.84,1.36,1.36,0,0,1,1.84,0,1.3,1.3,0,0,1-.92,2.22Z"/><path class="cls-2" d="M43,20.8a1.34,1.34,0,0,1-.92-.38,1.3,1.3,0,0,1,0-1.84,1.35,1.35,0,0,1,1.84,0A1.3,1.3,0,0,1,43,20.8Z"/><path class="cls-2" d="M38.25,20.55a1.34,1.34,0,0,1-.92-.38,1.3,1.3,0,0,1,0-1.84,1.36,1.36,0,0,1,1.84,0,1.3,1.3,0,0,1-.92,2.22Z"/><path class="cls-2" d="M39.5,25.05a1.34,1.34,0,0,1-.92-.38,1.3,1.3,0,0,1,0-1.84,1.36,1.36,0,0,1,1.84,0,1.3,1.3,0,0,1-.92,2.22Z"/><path class="cls-2" d="M35.25,24.8a1.34,1.34,0,0,1-.92-.38,1.3,1.3,0,0,1,0-1.84,1.36,1.36,0,0,1,1.84,0,1.3,1.3,0,0,1-.92,2.22Z"/><path class="cls-2" d="M47,22.3a1.3,1.3,0,0,1-.92-2.22,1.36,1.36,0,0,1,1.84,0,1.3,1.3,0,0,1,0,1.84A1.3,1.3,0,0,1,47,22.3Z"/><path class="cls-2" d="M46,18.8a1.34,1.34,0,0,1-.92-.38,1.3,1.3,0,0,1,0-1.84,1.36,1.36,0,0,1,1.84,0A1.3,1.3,0,0,1,46,18.8Z"/><path class="cls-2" d="M45,15.3a1.3,1.3,0,0,1-.92-2.22,1.36,1.36,0,0,1,1.84,0,1.3,1.3,0,0,1,0,1.84A1.3,1.3,0,0,1,45,15.3Z"/><path class="cls-2" d="M45.25,11.3a1.3,1.3,0,0,1-.92-2.22,1.36,1.36,0,0,1,1.84,0,1.3,1.3,0,0,1-.92,2.22Z"/><path class="cls-2" d="M45,7.05a1.34,1.34,0,0,1-.92-.38,1.3,1.3,0,0,1,0-1.84,1.36,1.36,0,0,1,1.84,0A1.3,1.3,0,0,1,45,7.05Z"/><path class="cls-2" d="M44.75,3.8a1.3,1.3,0,0,1-1.3-1.3,1.32,1.32,0,0,1,.38-.92,1.36,1.36,0,0,1,1.84,0,1.3,1.3,0,0,1,0,1.84A1.3,1.3,0,0,1,44.75,3.8Z"/><path class="cls-2" d="M49.75,2.8a1.34,1.34,0,0,1-.92-.38,1.3,1.3,0,0,1,0-1.84,1.36,1.36,0,0,1,1.84,0,1.3,1.3,0,0,1,0,1.84A1.32,1.32,0,0,1,49.75,2.8Z"/><path class="cls-2" d="M49,7.05a1.3,1.3,0,0,1-.92-2.22,1.36,1.36,0,0,1,1.84,0A1.3,1.3,0,0,1,49,7.05Z"/><path class="cls-2" d="M52.5,7.05a1.34,1.34,0,0,1-.92-.38,1.32,1.32,0,0,1-.38-.92,1.34,1.34,0,0,1,.38-.92,1.36,1.36,0,0,1,1.84,0,1.3,1.3,0,0,1-.92,2.22Z"/><path class="cls-2" d="M52.25,10.55a1.34,1.34,0,0,1-.92-.38A1.32,1.32,0,0,1,51,9.25a1.34,1.34,0,0,1,.38-.92,1.36,1.36,0,0,1,1.84,0,1.3,1.3,0,0,1,0,1.84A1.32,1.32,0,0,1,52.25,10.55Z"/><path class="cls-2" d="M48.5,10.3a1.34,1.34,0,0,1-.92-.38,1.3,1.3,0,0,1,0-1.84,1.36,1.36,0,0,1,1.84,0A1.32,1.32,0,0,1,49.8,9a1.3,1.3,0,0,1-.38.92A1.32,1.32,0,0,1,48.5,10.3Z"/><path class="cls-2" d="M48.75,14.8a1.34,1.34,0,0,1-.92-.38,1.3,1.3,0,0,1,0-1.84,1.36,1.36,0,0,1,1.84,0,1.3,1.3,0,0,1-.92,2.22Z"/><path class="cls-2" d="M52.25,14.8a1.34,1.34,0,0,1-.92-.38,1.3,1.3,0,0,1,0-1.84,1.36,1.36,0,0,1,1.84,0,1.28,1.28,0,0,1,.38.92,1.3,1.3,0,0,1-1.3,1.3Z"/><path class="cls-2" d="M49.5,18.3a1.34,1.34,0,0,1-.92-.38,1.3,1.3,0,0,1,0-1.84,1.36,1.36,0,0,1,1.84,0,1.3,1.3,0,0,1-.92,2.22Z"/><path class="cls-2" d="M51,22.55a1.34,1.34,0,0,1-.92-.38,1.32,1.32,0,0,1-.38-.92,1.34,1.34,0,0,1,.38-.92,1.36,1.36,0,0,1,1.84,0A1.3,1.3,0,0,1,51,22.55Z"/><path class="cls-2" d="M52.75,25.8a1.34,1.34,0,0,1-.92-.38,1.3,1.3,0,0,1,0-1.84,1.36,1.36,0,0,1,1.84,0,1.3,1.3,0,0,1-.92,2.22Z"/><path class="cls-2" d="M55.25,23.05a1.3,1.3,0,0,1-.92-2.22,1.36,1.36,0,0,1,1.84,0,1.3,1.3,0,0,1,0,1.84A1.3,1.3,0,0,1,55.25,23.05Z"/><path class="cls-2" d="M53.75,19.55a1.34,1.34,0,0,1-.92-.38,1.3,1.3,0,0,1,0-1.84,1.36,1.36,0,0,1,1.84,0,1.3,1.3,0,0,1-.92,2.22Z"/><path class="cls-2" d="M56,16.55a1.34,1.34,0,0,1-.92-.38,1.3,1.3,0,0,1,0-1.84,1.36,1.36,0,0,1,1.84,0A1.3,1.3,0,0,1,56,16.55Z"/><path class="cls-2" d="M56.25,12.3a1.3,1.3,0,0,1-.92-2.22,1.36,1.36,0,0,1,1.84,0,1.3,1.3,0,0,1-.92,2.22Z"/><path class="cls-2" d="M56.5,7.3a1.3,1.3,0,0,1-.92-2.22,1.36,1.36,0,0,1,1.84,0A1.3,1.3,0,0,1,56.5,7.3Z"/><path class="cls-2" d="M59.75,8.3a1.3,1.3,0,0,1-.92-2.22,1.36,1.36,0,0,1,1.84,0,1.3,1.3,0,0,1-.92,2.22Z"/><path class="cls-2" d="M58,3.8a1.3,1.3,0,0,1-1.3-1.3,1.32,1.32,0,0,1,.38-.92,1.36,1.36,0,0,1,1.84,0,1.3,1.3,0,0,1,0,1.84A1.3,1.3,0,0,1,58,3.8Z"/><path class="cls-2" d="M61.75,4.8a1.34,1.34,0,0,1-.92-.38,1.3,1.3,0,0,1,0-1.84,1.36,1.36,0,0,1,1.84,0,1.3,1.3,0,0,1-.92,2.22Z"/><path class="cls-2" d="M65,3.05a1.34,1.34,0,0,1-.92-.38,1.3,1.3,0,0,1,0-1.84,1.36,1.36,0,0,1,1.84,0,1.3,1.3,0,0,1,0,1.84A1.32,1.32,0,0,1,65,3.05Z"/><path class="cls-2" d="M67,5.05a1.3,1.3,0,0,1-.92-2.22,1.35,1.35,0,0,1,1.84,0A1.3,1.3,0,0,1,67,5.05Z"/><path class="cls-2" d="M63.5,8.05a1.34,1.34,0,0,1-.92-.38,1.3,1.3,0,0,1,0-1.84,1.36,1.36,0,0,1,1.84,0,1.3,1.3,0,0,1-.92,2.22Z"/><path class="cls-2" d="M62.75,11.8a1.34,1.34,0,0,1-.92-.38,1.32,1.32,0,0,1-.38-.92,1.34,1.34,0,0,1,.38-.92,1.36,1.36,0,0,1,1.84,0,1.3,1.3,0,0,1-.92,2.22Z"/><path class="cls-2" d="M60,14.05a1.34,1.34,0,0,1-.92-.38,1.3,1.3,0,0,1,0-1.84,1.36,1.36,0,0,1,1.84,0A1.3,1.3,0,0,1,60,14.05Z"/><path class="cls-2" d="M62.5,16.8a1.34,1.34,0,0,1-.92-.38,1.3,1.3,0,0,1,0-1.84,1.36,1.36,0,0,1,1.84,0,1.3,1.3,0,0,1-.92,2.22Z"/><path class="cls-2" d="M66.25,17.8a1.34,1.34,0,0,1-.92-.38,1.3,1.3,0,0,1,0-1.84,1.36,1.36,0,0,1,1.84,0,1.3,1.3,0,0,1-.92,2.22Z"/><path class="cls-2" d="M64.25,20.05a1.34,1.34,0,0,1-.92-.38,1.3,1.3,0,0,1,0-1.84,1.36,1.36,0,0,1,1.84,0,1.3,1.3,0,0,1-.92,2.22Z"/><path class="cls-2" d="M60.75,20.55a1.34,1.34,0,0,1-.92-.38,1.3,1.3,0,0,1,0-1.84,1.36,1.36,0,0,1,1.84,0,1.3,1.3,0,0,1-.92,2.22Z"/><path class="cls-2" d="M58,20.05a1.34,1.34,0,0,1-.92-.38,1.3,1.3,0,0,1,0-1.84,1.36,1.36,0,0,1,1.84,0A1.3,1.3,0,0,1,58,20.05Z"/><path class="cls-2" d="M59.75,24.3a1.32,1.32,0,0,1-.92-.38,1.3,1.3,0,0,1,0-1.84,1.36,1.36,0,0,1,1.84,0,1.3,1.3,0,0,1,0,1.84A1.3,1.3,0,0,1,59.75,24.3Z"/><path class="cls-2" d="M64.25,23.05a1.34,1.34,0,0,1-.92-.38,1.3,1.3,0,0,1,0-1.84,1.36,1.36,0,0,1,1.84,0,1.3,1.3,0,0,1-.92,2.22Z"/><path class="cls-2" d="M68.5,24.05a1.32,1.32,0,0,1-.92-.38,1.3,1.3,0,0,1,1.84-1.84,1.3,1.3,0,0,1-.92,2.22Z"/><path class="cls-2" d="M68.5,20.55a1.3,1.3,0,0,1-.92-2.22,1.35,1.35,0,0,1,1.84,0,1.3,1.3,0,0,1-.92,2.22Z"/><path class="cls-2" d="M65.5,13.8a1.34,1.34,0,0,1-.92-.38,1.3,1.3,0,0,1,0-1.84,1.36,1.36,0,0,1,1.84,0,1.3,1.3,0,0,1-.92,2.22Z"/><path class="cls-2" d="M66.25,10.05a1.34,1.34,0,0,1-.92-.38,1.3,1.3,0,0,1,0-1.84,1.35,1.35,0,0,1,1.84,0,1.3,1.3,0,0,1-.92,2.22Z"/><path class="cls-2" d="M69.75,8.05a1.34,1.34,0,0,1-.92-.38,1.32,1.32,0,0,1-.38-.92,1.3,1.3,0,0,1,2.22-.92,1.3,1.3,0,0,1-.92,2.22Z"/><path class="cls-2" d="M70.75,3.3a1.34,1.34,0,0,1-.92-.38A1.34,1.34,0,0,1,69.45,2a1.32,1.32,0,0,1,.38-.92,1.36,1.36,0,0,1,1.84,0,1.3,1.3,0,0,1,0,1.84A1.32,1.32,0,0,1,70.75,3.3Z"/><path class="cls-2" d="M69.75,14.55a1.3,1.3,0,0,1-.92-2.22,1.36,1.36,0,0,1,1.84,0,1.3,1.3,0,0,1-.92,2.22Z"/><path class="cls-2" d="M71.5,18.05a1.34,1.34,0,0,1-.92-.38,1.3,1.3,0,0,1,0-1.84,1.36,1.36,0,0,1,1.84,0,1.3,1.3,0,0,1-.92,2.22Z"/><path class="cls-2" d="M56.5,7.3a1.3,1.3,0,0,1-.92-2.22,1.36,1.36,0,0,1,1.84,0A1.3,1.3,0,0,1,56.5,7.3Z"/><path class="cls-2" d="M58,3.8a1.3,1.3,0,0,1-1.3-1.3,1.32,1.32,0,0,1,.38-.92,1.36,1.36,0,0,1,1.84,0,1.3,1.3,0,0,1,0,1.84A1.3,1.3,0,0,1,58,3.8Z"/><path class="cls-2" d="M54,4.55a1.3,1.3,0,0,1-.92-2.22,1.36,1.36,0,0,1,1.84,0A1.3,1.3,0,0,1,54,4.55Z"/><path class="cls-2" d="M24,24.05a1.34,1.34,0,0,1-.92-.38,1.3,1.3,0,0,1,0-1.84,1.36,1.36,0,0,1,1.84,0A1.3,1.3,0,0,1,24,24.05Z"/><path class="cls-2" d="M20,21.3a1.34,1.34,0,0,1-.92-.38A1.32,1.32,0,0,1,18.7,20a1.34,1.34,0,0,1,.38-.92,1.36,1.36,0,0,1,1.84,0,1.34,1.34,0,0,1,.38.92,1.32,1.32,0,0,1-.38.92A1.3,1.3,0,0,1,20,21.3Z"/><path class="cls-2" d="M16,22.3A1.3,1.3,0,0,1,14.7,21a1.34,1.34,0,0,1,.38-.92,1.36,1.36,0,0,1,1.84,0,1.34,1.34,0,0,1,.38.92A1.3,1.3,0,0,1,16,22.3Z"/><path class="cls-2" d="M17,18.3a1.34,1.34,0,0,1-.92-.38,1.3,1.3,0,0,1,0-1.84,1.36,1.36,0,0,1,1.84,0A1.3,1.3,0,0,1,17,18.3Z"/><path class="cls-2" d="M14.75,15.3a1.34,1.34,0,0,1-.92-.38,1.32,1.32,0,0,1-.38-.92,1.3,1.3,0,1,1,2.22.92A1.32,1.32,0,0,1,14.75,15.3Z"/><path class="cls-2" d="M12.5,12.55a1.34,1.34,0,0,1-.92-.38,1.32,1.32,0,0,1-.38-.92,1.34,1.34,0,0,1,.38-.92,1.36,1.36,0,0,1,1.84,0,1.3,1.3,0,0,1-.92,2.22Z"/><path class="cls-2" d="M12.5,18.8a1.3,1.3,0,0,1-.92-2.22,1.36,1.36,0,0,1,1.84,0,1.3,1.3,0,0,1,0,1.84A1.3,1.3,0,0,1,12.5,18.8Z"/><path class="cls-2" d="M16,22.3A1.3,1.3,0,0,1,14.7,21a1.34,1.34,0,0,1,.38-.92,1.36,1.36,0,0,1,1.84,0,1.34,1.34,0,0,1,.38.92A1.3,1.3,0,0,1,16,22.3Z"/><path class="cls-2" d="M18.5,24.55a1.34,1.34,0,0,1-.92-.38,1.3,1.3,0,0,1,0-1.84,1.35,1.35,0,0,1,1.84,0,1.32,1.32,0,0,1,.38.92,1.34,1.34,0,0,1-.38.92A1.32,1.32,0,0,1,18.5,24.55Z"/><path class="cls-2" d="M14,26.05a1.3,1.3,0,0,1-.92-2.22,1.35,1.35,0,0,1,1.84,0A1.3,1.3,0,0,1,14,26.05Z"/><path class="cls-2" d="M11.5,23.05a1.34,1.34,0,0,1-.92-.38,1.32,1.32,0,0,1-.38-.92,1.34,1.34,0,0,1,.38-.92,1.36,1.36,0,0,1,1.84,0,1.34,1.34,0,0,1,.38.92,1.3,1.3,0,0,1-1.3,1.3Z"/><path class="cls-2" d="M24,16.55a1.3,1.3,0,0,1-.92-2.22,1.36,1.36,0,0,1,1.84,0,1.3,1.3,0,0,1,0,1.84A1.3,1.3,0,0,1,24,16.55Z"/><path class="cls-2" d="M2,7.05A1.3,1.3,0,0,1,.7,5.75a1.34,1.34,0,0,1,.38-.92,1.35,1.35,0,0,1,1.84,0,1.34,1.34,0,0,1,.38.92A1.3,1.3,0,0,1,2,7.05Z"/><path class="cls-2" d="M3.25,16.55a1.3,1.3,0,0,1-.92-2.22,1.35,1.35,0,0,1,1.84,0,1.3,1.3,0,0,1-.92,2.22Z"/><path class="cls-2" d="M5.25,19.8a1.3,1.3,0,0,1-.92-2.22,1.35,1.35,0,0,1,1.84,0,1.29,1.29,0,0,1,.38.92,1.28,1.28,0,0,1-.38.92A1.32,1.32,0,0,1,5.25,19.8Z"/><path class="cls-2" d="M3.75,13.05a1.34,1.34,0,0,1-.92-.38,1.3,1.3,0,0,1,0-1.84,1.36,1.36,0,0,1,1.84,0,1.3,1.3,0,0,1-.92,2.22Z"/><path class="cls-2" d="M9,5.8a1.34,1.34,0,0,1-.92-.38,1.3,1.3,0,0,1,0-1.84,1.36,1.36,0,0,1,1.84,0A1.3,1.3,0,0,1,9,5.8Z"/><path class="cls-2" d="M5.75,6.3a1.34,1.34,0,0,1-.92-.38,1.3,1.3,0,0,1,0-1.84,1.36,1.36,0,0,1,1.84,0A1.32,1.32,0,0,1,7.05,5a1.34,1.34,0,0,1-.38.92A1.32,1.32,0,0,1,5.75,6.3Z"/><path class="cls-2" d="M6,9.55a1.34,1.34,0,0,1-.92-.38,1.3,1.3,0,0,1,0-1.84,1.3,1.3,0,0,1,2.22.92A1.3,1.3,0,0,1,6,9.55Z"/><path class="cls-2" d="M10.75,8.8a1.34,1.34,0,0,1-.92-.38,1.32,1.32,0,0,1-.38-.92,1.34,1.34,0,0,1,.38-.92,1.36,1.36,0,0,1,1.84,0,1.34,1.34,0,0,1,.38.92,1.3,1.3,0,0,1-1.3,1.3Z"/><path class="cls-2" d="M3.75,3.55a1.3,1.3,0,0,1-1.3-1.3,1.32,1.32,0,0,1,.38-.92,1.36,1.36,0,0,1,1.84,0,1.3,1.3,0,0,1,0,1.84A1.32,1.32,0,0,1,3.75,3.55Z"/><path class="cls-2" d="M7,14.3a1.34,1.34,0,0,1-.92-.38,1.3,1.3,0,0,1,0-1.84,1.36,1.36,0,0,1,1.84,0,1.3,1.3,0,0,1,0,1.84A1.32,1.32,0,0,1,7,14.3Z"/><path class="cls-2" d="M9.75,12.05a1.3,1.3,0,0,1-1.3-1.3,1.32,1.32,0,0,1,.38-.92,1.36,1.36,0,0,1,1.84,0,1.3,1.3,0,0,1-.92,2.22Z"/><path class="cls-2" d="M9.75,16.05a1.3,1.3,0,0,1-1.3-1.3,1.32,1.32,0,0,1,.38-.92,1.36,1.36,0,0,1,1.84,0,1.32,1.32,0,0,1,.38.92,1.34,1.34,0,0,1-.38.92A1.32,1.32,0,0,1,9.75,16.05Z"/><path class="cls-2" d="M12.5,18.8a1.3,1.3,0,0,1-.92-2.22,1.36,1.36,0,0,1,1.84,0,1.3,1.3,0,0,1,0,1.84A1.3,1.3,0,0,1,12.5,18.8Z"/><path class="cls-2" d="M8.25,20.55a1.34,1.34,0,0,1-.92-.38A1.32,1.32,0,0,1,7,19.25a1.34,1.34,0,0,1,.38-.92,1.36,1.36,0,0,1,1.84,0,1.34,1.34,0,0,1,.38.92,1.3,1.3,0,0,1-1.3,1.3Z"/><path class="cls-2" d="M5.75,26.05a1.34,1.34,0,0,1-.92-.38,1.3,1.3,0,0,1,0-1.84,1.36,1.36,0,0,1,1.84,0,1.32,1.32,0,0,1,.38.92,1.34,1.34,0,0,1-.38.92A1.32,1.32,0,0,1,5.75,26.05Z"/><path class="cls-2" d="M5,23.05a1.3,1.3,0,0,1-.92-2.22,1.36,1.36,0,0,1,1.84,0,1.3,1.3,0,0,1,0,1.84A1.32,1.32,0,0,1,5,23.05Z"/><path class="cls-2" d="M15,71.8a1.34,1.34,0,0,1-.92-.38,1.3,1.3,0,0,1,0-1.84,1.36,1.36,0,0,1,1.84,0,1.34,1.34,0,0,1,.38.92A1.3,1.3,0,0,1,15,71.8Z"/><path class="cls-2" d="M15,71.8a1.34,1.34,0,0,1-.92-.38,1.3,1.3,0,0,1,0-1.84,1.36,1.36,0,0,1,1.84,0,1.34,1.34,0,0,1,.38.92A1.3,1.3,0,0,1,15,71.8Z"/><path class="cls-2" d="M18.5,70.8a1.34,1.34,0,0,1-.92-.38,1.3,1.3,0,0,1,0-1.84,1.36,1.36,0,0,1,1.84,0,1.3,1.3,0,0,1-.92,2.22Z"/><path class="cls-2" d="M24,71.8a1.34,1.34,0,0,1-.92-.38,1.3,1.3,0,0,1,0-1.84,1.36,1.36,0,0,1,1.84,0,1.3,1.3,0,0,1,0,1.84A1.3,1.3,0,0,1,24,71.8Z"/><path class="cls-2" d="M29.25,71.3a1.3,1.3,0,0,1-.92-2.22,1.36,1.36,0,0,1,1.84,0,1.3,1.3,0,0,1,0,1.84A1.3,1.3,0,0,1,29.25,71.3Z"/><path class="cls-2" d="M32.75,71.8a1.34,1.34,0,0,1-.92-.38,1.3,1.3,0,0,1,0-1.84,1.36,1.36,0,0,1,1.84,0,1.32,1.32,0,0,1,.38.92,1.34,1.34,0,0,1-.38.92A1.32,1.32,0,0,1,32.75,71.8Z"/><path class="cls-2" d="M37.75,71.3a1.34,1.34,0,0,1-.92-.38,1.3,1.3,0,0,1,0-1.84,1.36,1.36,0,0,1,1.84,0,1.3,1.3,0,0,1-.92,2.22Z"/><path class="cls-2" d="M45,68.55a1.3,1.3,0,0,1-.92-2.22,1.36,1.36,0,0,1,1.84,0A1.3,1.3,0,0,1,45,68.55Z"/><path class="cls-2" d="M49.75,70.3a1.34,1.34,0,0,1-.92-.38,1.3,1.3,0,0,1,0-1.84,1.36,1.36,0,0,1,1.84,0,1.3,1.3,0,0,1-.92,2.22Z"/><path class="cls-2" d="M59.75,71.8a1.3,1.3,0,1,1,.92-2.22,1.3,1.3,0,0,1-.92,2.22Z"/><path class="cls-2" d="M67.75,72.55a1.3,1.3,0,0,1-.92-2.22,1.36,1.36,0,0,1,1.84,0,1.3,1.3,0,0,1,0,1.84A1.3,1.3,0,0,1,67.75,72.55Z"/><path class="cls-2" d="M55,73.55a1.3,1.3,0,0,1-.92-2.22,1.36,1.36,0,0,1,1.84,0A1.3,1.3,0,0,1,55,73.55Z"/><path class="cls-2" d="M53.75,69.8a1.3,1.3,0,0,1-.92-2.22,1.36,1.36,0,0,1,1.84,0,1.3,1.3,0,0,1-.92,2.22Z"/><path class="cls-2" d="M10.25,70.8a1.34,1.34,0,0,1-.92-.38,1.3,1.3,0,0,1,0-1.84,1.36,1.36,0,0,1,1.84,0,1.3,1.3,0,0,1-.92,2.22Z"/><path class="cls-2" d="M5.75,71.05a1.3,1.3,0,0,1-.92-2.22,1.3,1.3,0,0,1,2.22.92,1.3,1.3,0,0,1-1.3,1.3Z"/><path class="cls-2" d="M22,26.8a1.34,1.34,0,0,1-.92-.38,1.3,1.3,0,0,1,0-1.84,1.36,1.36,0,0,1,1.84,0,1.3,1.3,0,0,1,0,1.84A1.3,1.3,0,0,1,22,26.8Z"/><path class="cls-2" d="M26.5,27.8a1.34,1.34,0,0,1-.92-.38,1.3,1.3,0,0,1,0-1.84,1.36,1.36,0,0,1,1.84,0,1.34,1.34,0,0,1,.38.92,1.3,1.3,0,0,1-1.3,1.3Z"/><path class="cls-2" d="M30.25,25.8a1.34,1.34,0,0,1-.92-.38,1.3,1.3,0,0,1,0-1.84,1.36,1.36,0,0,1,1.84,0,1.3,1.3,0,0,1-.92,2.22Z"/><path class="cls-2" d="M29,29.8a1.3,1.3,0,0,1-.92-2.22,1.36,1.36,0,0,1,1.84,0,1.3,1.3,0,0,1,0,1.84A1.3,1.3,0,0,1,29,29.8Z"/><path class="cls-2" d="M26.25,31.8a1.34,1.34,0,0,1-.92-.38,1.3,1.3,0,0,1,0-1.84,1.35,1.35,0,0,1,1.84,0,1.3,1.3,0,0,1-.92,2.22Z"/><path class="cls-2" d="M22.75,31.05a1.3,1.3,0,0,1-.92-2.22,1.35,1.35,0,0,1,1.84,0,1.3,1.3,0,0,1,0,1.84A1.3,1.3,0,0,1,22.75,31.05Z"/><path class="cls-2" d="M19.5,31.8a1.34,1.34,0,0,1-.92-.38,1.3,1.3,0,0,1,0-1.84,1.35,1.35,0,0,1,1.84,0,1.3,1.3,0,0,1-.92,2.22Z"/><path class="cls-2" d="M18,28.05a1.3,1.3,0,0,1-.92-2.22,1.36,1.36,0,0,1,1.84,0A1.3,1.3,0,0,1,18,28.05Z"/><path class="cls-2" d="M16,30.55a1.3,1.3,0,0,1-.92-2.22,1.36,1.36,0,0,1,1.84,0,1.3,1.3,0,0,1,0,1.84A1.3,1.3,0,0,1,16,30.55Z"/><path class="cls-2" d="M12.75,29.3a1.34,1.34,0,0,1-.92-.38,1.3,1.3,0,0,1,0-1.84,1.3,1.3,0,0,1,2.22.92,1.3,1.3,0,0,1-1.3,1.3Z"/><path class="cls-2" d="M9.5,30.8a1.34,1.34,0,0,1-.92-.38,1.32,1.32,0,0,1-.38-.92,1.34,1.34,0,0,1,.38-.92,1.36,1.36,0,0,1,1.84,0,1.29,1.29,0,0,1,.38.92,1.28,1.28,0,0,1-.38.92A1.32,1.32,0,0,1,9.5,30.8Z"/><path class="cls-2" d="M8.5,34.05a1.34,1.34,0,0,1-.92-.38,1.3,1.3,0,0,1,0-1.84,1.36,1.36,0,0,1,1.84,0,1.3,1.3,0,0,1-.92,2.22Z"/><path class="cls-2" d="M10,38.3a1.34,1.34,0,0,1-.92-.38,1.3,1.3,0,0,1,0-1.84,1.36,1.36,0,0,1,1.84,0A1.3,1.3,0,0,1,10,38.3Z"/><path class="cls-2" d="M12.5,35.8a1.34,1.34,0,0,1-.92-.38,1.3,1.3,0,0,1,0-1.84,1.36,1.36,0,0,1,1.84,0,1.3,1.3,0,0,1-.92,2.22Z"/><path class="cls-2" d="M15.25,33.3a1.3,1.3,0,0,1-.92-2.22,1.36,1.36,0,0,1,1.84,0,1.3,1.3,0,0,1-.92,2.22Z"/><path class="cls-2" d="M19,35.55a1.34,1.34,0,0,1-.92-.38,1.3,1.3,0,0,1,0-1.84,1.36,1.36,0,0,1,1.84,0A1.3,1.3,0,0,1,19,35.55Z"/><path class="cls-2" d="M16,38.05a1.34,1.34,0,0,1-.92-.38,1.3,1.3,0,0,1,0-1.84,1.36,1.36,0,0,1,1.84,0A1.3,1.3,0,0,1,16,38.05Z"/><path class="cls-2" d="M13,40.8a1.34,1.34,0,0,1-.92-.38,1.3,1.3,0,0,1,0-1.84,1.36,1.36,0,0,1,1.84,0A1.3,1.3,0,0,1,13,40.8Z"/><path class="cls-2" d="M9.75,42.55a1.3,1.3,0,0,1-1.3-1.3,1.32,1.32,0,0,1,.38-.92,1.36,1.36,0,0,1,1.84,0,1.32,1.32,0,0,1,.38.92,1.34,1.34,0,0,1-.38.92A1.32,1.32,0,0,1,9.75,42.55Z"/><path class="cls-2" d="M10,38.3a1.34,1.34,0,0,1-.92-.38,1.3,1.3,0,0,1,0-1.84,1.36,1.36,0,0,1,1.84,0A1.3,1.3,0,0,1,10,38.3Z"/><path class="cls-2" d="M6.75,39.8a1.34,1.34,0,0,1-.92-.38,1.3,1.3,0,0,1,0-1.84,1.36,1.36,0,0,1,1.84,0,1.3,1.3,0,0,1-.92,2.22Z"/><path class="cls-2" d="M5.75,35.3a1.3,1.3,0,0,1-.92-2.22,1.36,1.36,0,0,1,1.84,0,1.34,1.34,0,0,1,.38.92,1.3,1.3,0,0,1-1.3,1.3Z"/><path class="cls-2" d="M5.5,30.05a1.34,1.34,0,0,1-.92-.38,1.3,1.3,0,0,1,0-1.84,1.36,1.36,0,0,1,1.84,0,1.3,1.3,0,0,1-.92,2.22Z"/><path class="cls-2" d="M2.5,32.05a1.34,1.34,0,0,1-.92-.38,1.3,1.3,0,0,1,0-1.84,1.36,1.36,0,0,1,1.84,0,1.3,1.3,0,0,1,0,1.84A1.32,1.32,0,0,1,2.5,32.05Z"/><path class="cls-2" d="M1.75,36.05a1.34,1.34,0,0,1-.92-.38,1.3,1.3,0,0,1,0-1.84,1.36,1.36,0,0,1,1.84,0,1.3,1.3,0,0,1-.92,2.22Z"/><path class="cls-2" d="M1.75,27.55a1.34,1.34,0,0,1-.92-.38,1.3,1.3,0,0,1,0-1.84,1.36,1.36,0,0,1,1.84,0,1.3,1.3,0,0,1-.92,2.22Z"/><path class="cls-2" d="M3,39.55a1.3,1.3,0,0,1-.92-2.22,1.35,1.35,0,0,1,1.84,0A1.3,1.3,0,0,1,3,39.55Z"/><path class="cls-2" d="M3.5,43.3a1.34,1.34,0,0,1-.92-.38,1.3,1.3,0,0,1,0-1.84,1.36,1.36,0,0,1,1.84,0A1.3,1.3,0,0,1,3.5,43.3Z"/><path class="cls-2" d="M2.75,49.3a1.34,1.34,0,0,1-.92-.38A1.32,1.32,0,0,1,1.45,48a1.34,1.34,0,0,1,.38-.92,1.36,1.36,0,0,1,1.84,0,1.3,1.3,0,0,1-.92,2.22Z"/><path class="cls-2" d="M3.75,52.3a1.34,1.34,0,0,1-.92-.38A1.32,1.32,0,0,1,2.45,51a1.34,1.34,0,0,1,.38-.92,1.36,1.36,0,0,1,1.84,0,1.34,1.34,0,0,1,.38.92,1.3,1.3,0,0,1-1.3,1.3Z"/><path class="cls-2" d="M7.25,50.3a1.34,1.34,0,0,1-.92-.38,1.3,1.3,0,0,1,0-1.84,1.36,1.36,0,0,1,1.84,0,1.3,1.3,0,0,1-.92,2.22Z"/><path class="cls-2" d="M5.5,46.3a1.3,1.3,0,0,1-.92-2.22,1.36,1.36,0,0,1,1.84,0A1.34,1.34,0,0,1,6.8,45a1.3,1.3,0,0,1-1.3,1.3Z"/><path class="cls-2" d="M9.5,46.8a1.34,1.34,0,0,1-.92-.38,1.3,1.3,0,0,1,0-1.84,1.36,1.36,0,0,1,1.84,0,1.29,1.29,0,0,1,.38.92,1.3,1.3,0,0,1-1.3,1.3Z"/><path class="cls-2" d="M12,49.8a1.34,1.34,0,0,1-.92-.38,1.32,1.32,0,0,1-.38-.92,1.34,1.34,0,0,1,.38-.92,1.36,1.36,0,0,1,1.84,0,1.34,1.34,0,0,1,.38.92A1.3,1.3,0,0,1,12,49.8Z"/><path class="cls-2" d="M15,50.8a1.3,1.3,0,0,1-.92-2.22,1.36,1.36,0,0,1,1.84,0A1.3,1.3,0,0,1,15,50.8Z"/><path class="cls-2" d="M17.75,52.3a1.34,1.34,0,0,1-.92-.38,1.3,1.3,0,0,1,0-1.84,1.36,1.36,0,0,1,1.84,0,1.3,1.3,0,0,1-.92,2.22Z"/><path class="cls-2" d="M12.5,45.55a1.34,1.34,0,0,1-.92-.38,1.3,1.3,0,0,1,0-1.84,1.36,1.36,0,0,1,1.84,0,1.3,1.3,0,0,1-.92,2.22Z"/><path class="cls-2" d="M16,46.8a1.34,1.34,0,0,1-.92-.38,1.3,1.3,0,0,1,0-1.84,1.36,1.36,0,0,1,1.84,0A1.3,1.3,0,0,1,16,46.8Z"/><path class="cls-2" d="M19.25,47.8A1.3,1.3,0,0,1,18,46.5a1.34,1.34,0,0,1,.38-.92,1.36,1.36,0,0,1,1.84,0,1.34,1.34,0,0,1,.38.92,1.32,1.32,0,0,1-.38.92A1.3,1.3,0,0,1,19.25,47.8Z"/><path class="cls-2" d="M16.25,42.3a1.3,1.3,0,0,1-.92-2.22,1.36,1.36,0,0,1,1.84,0,1.3,1.3,0,0,1-.92,2.22Z"/><path class="cls-2" d="M20.25,43.3a1.34,1.34,0,0,1-.92-.38A1.32,1.32,0,0,1,19,42a1.34,1.34,0,0,1,.38-.92,1.36,1.36,0,0,1,1.84,0,1.34,1.34,0,0,1,.38.92,1.3,1.3,0,0,1-1.3,1.3Z"/><path class="cls-2" d="M21,39.05a1.34,1.34,0,0,1-.92-.38,1.3,1.3,0,0,1,0-1.84,1.36,1.36,0,0,1,1.84,0A1.3,1.3,0,0,1,21,39.05Z"/><path class="cls-2" d="M23.5,42.05a1.3,1.3,0,0,1-.92-2.22,1.35,1.35,0,0,1,1.84,0,1.3,1.3,0,0,1,0,1.84A1.3,1.3,0,0,1,23.5,42.05Z"/><path class="cls-2" d="M26.25,39.55a1.3,1.3,0,0,1-1.3-1.3,1.34,1.34,0,0,1,.38-.92,1.36,1.36,0,0,1,1.84,0,1.34,1.34,0,0,1,.38.92,1.3,1.3,0,0,1-1.3,1.3Z"/><path class="cls-2" d="M22.5,46.05a1.34,1.34,0,0,1-.92-.38,1.3,1.3,0,0,1,0-1.84,1.36,1.36,0,0,1,1.84,0,1.3,1.3,0,0,1-.92,2.22Z"/><path class="cls-2" d="M26,48.05a1.34,1.34,0,0,1-.92-.38,1.3,1.3,0,0,1,0-1.84,1.36,1.36,0,0,1,1.84,0A1.3,1.3,0,0,1,26,48.05Z"/><path class="cls-2" d="M26,52.05a1.3,1.3,0,0,1-.92-2.22,1.36,1.36,0,0,1,1.84,0A1.3,1.3,0,0,1,26,52.05Z"/><path class="cls-2" d="M22,50.3a1.3,1.3,0,0,1-.92-2.22,1.36,1.36,0,0,1,1.84,0,1.34,1.34,0,0,1,.38.92,1.32,1.32,0,0,1-.38.92A1.3,1.3,0,0,1,22,50.3Z"/><path class="cls-2" d="M29.5,49.05a1.34,1.34,0,0,1-.92-.38,1.3,1.3,0,0,1,0-1.84,1.36,1.36,0,0,1,1.84,0,1.3,1.3,0,0,1,0,1.84A1.3,1.3,0,0,1,29.5,49.05Z"/><path class="cls-2" d="M31.5,45.8a1.3,1.3,0,0,1-.92-2.22,1.36,1.36,0,0,1,1.84,0,1.29,1.29,0,0,1,.38.92,1.3,1.3,0,0,1-1.3,1.3Z"/><path class="cls-2" d="M30.25,41.8a1.3,1.3,0,0,1-.92-2.22,1.36,1.36,0,0,1,1.84,0,1.3,1.3,0,0,1-.92,2.22Z"/><path class="cls-2" d="M30.25,37.8a1.34,1.34,0,0,1-.92-.38,1.3,1.3,0,0,1,0-1.84,1.36,1.36,0,0,1,1.84,0,1.3,1.3,0,0,1-.92,2.22Z"/><path class="cls-2" d="M27,36.05a1.34,1.34,0,0,1-.92-.38,1.3,1.3,0,0,1,0-1.84,1.36,1.36,0,0,1,1.84,0A1.3,1.3,0,0,1,27,36.05Z"/><path class="cls-2" d="M23.5,36.05a1.3,1.3,0,0,1-.92-2.22,1.36,1.36,0,0,1,1.84,0,1.3,1.3,0,0,1,0,1.84A1.3,1.3,0,0,1,23.5,36.05Z"/><path class="cls-2" d="M30,32.55a1.34,1.34,0,0,1-.92-.38,1.3,1.3,0,0,1,0-1.84,1.36,1.36,0,0,1,1.84,0,1.34,1.34,0,0,1,.38.92,1.3,1.3,0,0,1-1.3,1.3Z"/><path class="cls-2" d="M33,35.3a1.34,1.34,0,0,1-.92-.38A1.32,1.32,0,0,1,31.7,34a1.34,1.34,0,0,1,.38-.92,1.36,1.36,0,0,1,1.84,0A1.3,1.3,0,0,1,33,35.3Z"/><path class="cls-2" d="M36,35.8a1.34,1.34,0,0,1-.92-.38,1.3,1.3,0,0,1,0-1.84,1.36,1.36,0,0,1,1.84,0A1.3,1.3,0,0,1,36,35.8Z"/><path class="cls-2" d="M33.5,39.8a1.34,1.34,0,0,1-.92-.38,1.32,1.32,0,0,1-.38-.92,1.34,1.34,0,0,1,.38-.92,1.36,1.36,0,0,1,1.84,0,1.3,1.3,0,0,1-.92,2.22Z"/><path class="cls-2" d="M34.5,43.55a1.3,1.3,0,0,1-.92-2.22,1.36,1.36,0,0,1,1.84,0,1.3,1.3,0,0,1,0,1.84A1.3,1.3,0,0,1,34.5,43.55Z"/><path class="cls-2" d="M31.5,45.8a1.3,1.3,0,0,1-.92-2.22,1.36,1.36,0,0,1,1.84,0,1.29,1.29,0,0,1,.38.92,1.3,1.3,0,0,1-1.3,1.3Z"/><path class="cls-2" d="M34.75,47.3a1.34,1.34,0,0,1-.92-.38,1.3,1.3,0,0,1,0-1.84,1.35,1.35,0,0,1,1.84,0,1.29,1.29,0,0,1,.38.92,1.34,1.34,0,0,1-.38.92A1.32,1.32,0,0,1,34.75,47.3Z"/><path class="cls-2" d="M37.75,51.55a1.3,1.3,0,0,1-.92-2.22,1.35,1.35,0,0,1,1.84,0,1.3,1.3,0,0,1-.92,2.22Z"/><path class="cls-2" d="M32.75,50.55a1.34,1.34,0,0,1-.92-.38,1.3,1.3,0,0,1,0-1.84,1.36,1.36,0,0,1,1.84,0,1.32,1.32,0,0,1,.38.92,1.34,1.34,0,0,1-.38.92A1.32,1.32,0,0,1,32.75,50.55Z"/><path class="cls-2" d="M38.5,47.55a1.34,1.34,0,0,1-.92-.38,1.3,1.3,0,0,1,0-1.84,1.36,1.36,0,0,1,1.84,0,1.3,1.3,0,0,1,0,1.84A1.3,1.3,0,0,1,38.5,47.55Z"/><path class="cls-2" d="M38.25,43.05a1.3,1.3,0,0,1-.92-2.22,1.36,1.36,0,0,1,1.84,0,1.3,1.3,0,0,1,0,1.84A1.3,1.3,0,0,1,38.25,43.05Z"/><path class="cls-2" d="M37.5,39.55a1.34,1.34,0,0,1-.92-.38,1.3,1.3,0,0,1,0-1.84,1.36,1.36,0,0,1,1.84,0,1.3,1.3,0,0,1,0,1.84A1.32,1.32,0,0,1,37.5,39.55Z"/><path class="cls-2" d="M33,35.3a1.34,1.34,0,0,1-.92-.38A1.32,1.32,0,0,1,31.7,34a1.34,1.34,0,0,1,.38-.92,1.36,1.36,0,0,1,1.84,0A1.3,1.3,0,0,1,33,35.3Z"/><path class="cls-2" d="M36,35.8a1.34,1.34,0,0,1-.92-.38,1.3,1.3,0,0,1,0-1.84,1.36,1.36,0,0,1,1.84,0A1.3,1.3,0,0,1,36,35.8Z"/><path class="cls-2" d="M33.75,32.05a1.34,1.34,0,0,1-.92-.38,1.3,1.3,0,0,1,0-1.84,1.36,1.36,0,0,1,1.84,0,1.3,1.3,0,0,1-.92,2.22Z"/><path class="cls-2" d="M33.25,28.05a1.3,1.3,0,0,1-.92-2.22,1.36,1.36,0,0,1,1.84,0,1.3,1.3,0,0,1,0,1.84A1.3,1.3,0,0,1,33.25,28.05Z"/><path class="cls-2" d="M37,28.3a1.34,1.34,0,0,1-.92-.38,1.3,1.3,0,0,1,0-1.84,1.36,1.36,0,0,1,1.84,0A1.3,1.3,0,0,1,37,28.3Z"/><path class="cls-2" d="M37.75,32.8a1.34,1.34,0,0,1-.92-.38,1.3,1.3,0,0,1,0-1.84,1.35,1.35,0,0,1,1.84,0,1.3,1.3,0,0,1-.92,2.22Z"/><path class="cls-2" d="M40,36.05a1.3,1.3,0,0,1-.92-2.22,1.36,1.36,0,0,1,1.84,0A1.3,1.3,0,0,1,40,36.05Z"/><path class="cls-2" d="M43,38.55a1.3,1.3,0,0,1-.92-2.22,1.36,1.36,0,0,1,1.84,0A1.3,1.3,0,0,1,43,38.55Z"/><path class="cls-2" d="M42.5,42.3a1.3,1.3,0,0,1-.92-2.22,1.35,1.35,0,0,1,1.84,0,1.3,1.3,0,0,1-.92,2.22Z"/><path class="cls-2" d="M41.75,46.05a1.34,1.34,0,0,1-.92-.38,1.3,1.3,0,0,1,0-1.84,1.35,1.35,0,0,1,1.84,0,1.3,1.3,0,0,1-.92,2.22Z"/><path class="cls-2" d="M43.75,49.55a1.34,1.34,0,0,1-.92-.38,1.3,1.3,0,0,1,0-1.84,1.35,1.35,0,0,1,1.84,0,1.3,1.3,0,0,1-.92,2.22Z"/><path class="cls-2" d="M46.75,46.55a1.3,1.3,0,0,1-.92-2.22,1.36,1.36,0,0,1,1.84,0,1.3,1.3,0,0,1-.92,2.22Z"/><path class="cls-2" d="M46.75,51.05a1.34,1.34,0,0,1-.92-.38,1.3,1.3,0,0,1,0-1.84,1.36,1.36,0,0,1,1.84,0,1.3,1.3,0,0,1-.92,2.22Z"/><path class="cls-2" d="M46.5,41.8a1.3,1.3,0,0,1-.92-2.22,1.36,1.36,0,0,1,1.84,0,1.3,1.3,0,0,1-.92,2.22Z"/><path class="cls-2" d="M47.75,38.8a1.34,1.34,0,0,1-.92-.38,1.3,1.3,0,0,1,0-1.84,1.36,1.36,0,0,1,1.84,0,1.3,1.3,0,0,1,0,1.84A1.3,1.3,0,0,1,47.75,38.8Z"/><path class="cls-2" d="M44.5,34.8a1.3,1.3,0,0,1-.92-2.22,1.36,1.36,0,0,1,1.84,0,1.3,1.3,0,0,1-.92,2.22Z"/><path class="cls-2" d="M42.75,32.3a1.34,1.34,0,0,1-.92-.38,1.32,1.32,0,0,1-.38-.92,1.3,1.3,0,1,1,2.6,0,1.3,1.3,0,0,1-1.3,1.3Z"/><path class="cls-2" d="M40.75,30.05a1.34,1.34,0,0,1-.92-.38,1.3,1.3,0,0,1,0-1.84,1.35,1.35,0,0,1,1.84,0,1.3,1.3,0,0,1,0,1.84A1.3,1.3,0,0,1,40.75,30.05Z"/><path class="cls-2" d="M44,28.05a1.3,1.3,0,0,1-.92-2.22,1.36,1.36,0,0,1,1.84,0A1.3,1.3,0,0,1,44,28.05Z"/><path class="cls-2" d="M43,24.05a1.34,1.34,0,0,1-.92-.38,1.3,1.3,0,0,1,0-1.84,1.36,1.36,0,0,1,1.84,0A1.3,1.3,0,0,1,43,24.05Z"/><path class="cls-2" d="M47.75,26.8a1.34,1.34,0,0,1-.92-.38,1.3,1.3,0,0,1,0-1.84,1.36,1.36,0,0,1,1.84,0,1.3,1.3,0,0,1-.92,2.22Z"/><path class="cls-2" d="M46.5,31.05a1.34,1.34,0,0,1-.92-.38,1.3,1.3,0,0,1,0-1.84,1.36,1.36,0,0,1,1.84,0,1.3,1.3,0,0,1-.92,2.22Z"/><path class="cls-2" d="M48.5,34.3a1.34,1.34,0,0,1-.92-.38,1.3,1.3,0,0,1,0-1.84,1.36,1.36,0,0,1,1.84,0,1.3,1.3,0,0,1-.92,2.22Z"/><path class="cls-2" d="M51.75,36.8a1.3,1.3,0,0,1-1.3-1.3,1.32,1.32,0,0,1,.38-.92,1.36,1.36,0,0,1,1.84,0,1.3,1.3,0,0,1-.92,2.22Z"/><path class="cls-2" d="M51.5,40.8a1.3,1.3,0,0,1-.92-2.22,1.36,1.36,0,0,1,1.84,0,1.3,1.3,0,0,1-.92,2.22Z"/><path class="cls-2" d="M50.5,44.8a1.34,1.34,0,0,1-.92-.38,1.32,1.32,0,0,1-.38-.92,1.3,1.3,0,1,1,2.6,0,1.3,1.3,0,0,1-1.3,1.3Z"/><path class="cls-2" d="M54.25,44.05a1.3,1.3,0,0,1-.92-2.22,1.36,1.36,0,0,1,1.84,0,1.3,1.3,0,0,1-.92,2.22Z"/><path class="cls-2" d="M54,48.55a1.3,1.3,0,0,1-.92-2.22,1.36,1.36,0,0,1,1.84,0A1.3,1.3,0,0,1,54,48.55Z"/><path class="cls-2" d="M56.75,51.55a1.34,1.34,0,0,1-.92-.38,1.3,1.3,0,0,1,0-1.84,1.35,1.35,0,0,1,1.84,0,1.3,1.3,0,0,1,0,1.84A1.3,1.3,0,0,1,56.75,51.55Z"/><path class="cls-2" d="M57.5,46.8a1.34,1.34,0,0,1-.92-.38,1.3,1.3,0,0,1,0-1.84,1.36,1.36,0,0,1,1.84,0,1.3,1.3,0,0,1-.92,2.22Z"/><path class="cls-2" d="M57.5,43.05a1.3,1.3,0,0,1-.92-2.22,1.36,1.36,0,0,1,1.84,0,1.3,1.3,0,0,1,0,1.84A1.3,1.3,0,0,1,57.5,43.05Z"/><path class="cls-2" d="M56.5,39.05a1.34,1.34,0,0,1-.92-.38,1.3,1.3,0,0,1,0-1.84,1.36,1.36,0,0,1,1.84,0,1.3,1.3,0,0,1-.92,2.22Z"/><path class="cls-2" d="M27.25,44.05a1.34,1.34,0,0,1-.92-.38,1.3,1.3,0,0,1,0-1.84,1.35,1.35,0,0,1,1.84,0,1.3,1.3,0,0,1-.92,2.22Z"/><path class="cls-2" d="M70.25,33.3a1.3,1.3,0,0,1-.92-2.22,1.35,1.35,0,0,1,1.84,0,1.3,1.3,0,0,1-.92,2.22Z"/><path class="cls-2" d="M71.25,29.05a1.34,1.34,0,0,1-.92-.38,1.3,1.3,0,0,1,0-1.84,1.36,1.36,0,0,1,1.84,0,1.3,1.3,0,0,1-.92,2.22Z"/><path class="cls-2" d="M68,27.3a1.34,1.34,0,0,1-.92-.38A1.32,1.32,0,0,1,66.7,26a1.3,1.3,0,0,1,2.22-.92A1.3,1.3,0,0,1,68,27.3Z"/><path class="cls-2" d="M68.25,36.55a1.3,1.3,0,0,1-.92-2.22,1.36,1.36,0,0,1,1.84,0,1.3,1.3,0,0,1,0,1.84A1.3,1.3,0,0,1,68.25,36.55Z"/><path class="cls-2" d="M68,40.3a1.34,1.34,0,0,1-.92-.38,1.3,1.3,0,0,1,0-1.84,1.35,1.35,0,0,1,1.84,0A1.3,1.3,0,0,1,68,40.3Z"/><path class="cls-2" d="M71.5,39.05a1.3,1.3,0,0,1-.92-2.22,1.36,1.36,0,0,1,1.84,0,1.3,1.3,0,0,1-.92,2.22Z"/><path class="cls-2" d="M70.75,43.05a1.34,1.34,0,0,1-.92-.38,1.32,1.32,0,0,1-.38-.92,1.34,1.34,0,0,1,.38-.92,1.36,1.36,0,0,1,1.84,0,1.3,1.3,0,0,1-.92,2.22Z"/><path class="cls-2" d="M70,50.55a1.34,1.34,0,0,1-.92-.38,1.3,1.3,0,0,1,0-1.84,1.35,1.35,0,0,1,1.84,0A1.3,1.3,0,0,1,70,50.55Z"/><path class="cls-2" d="M69,47.05a1.34,1.34,0,0,1-.92-.38,1.3,1.3,0,0,1,0-1.84,1.36,1.36,0,0,1,1.84,0A1.3,1.3,0,0,1,69,47.05Z"/><path class="cls-2" d="M66.5,31.05a1.3,1.3,0,0,1-.92-2.22,1.36,1.36,0,0,1,1.84,0,1.3,1.3,0,0,1-.92,2.22Z"/><path class="cls-2" d="M63,31.3a1.34,1.34,0,0,1-.92-.38,1.3,1.3,0,0,1,0-1.84,1.36,1.36,0,0,1,1.84,0,1.3,1.3,0,0,1,0,1.84A1.3,1.3,0,0,1,63,31.3Z"/><path class="cls-2" d="M64,26.55a1.34,1.34,0,0,1-.92-.38,1.3,1.3,0,0,1,0-1.84,1.36,1.36,0,0,1,1.84,0A1.3,1.3,0,0,1,64,26.55Z"/><path class="cls-2" d="M60.5,28.05a1.34,1.34,0,0,1-.92-.38,1.3,1.3,0,0,1,0-1.84,1.36,1.36,0,0,1,1.84,0,1.3,1.3,0,0,1,0,1.84A1.3,1.3,0,0,1,60.5,28.05Z"/><path class="cls-2" d="M56.75,27.05a1.34,1.34,0,0,1-.92-.38,1.3,1.3,0,0,1,0-1.84,1.36,1.36,0,0,1,1.84,0,1.32,1.32,0,0,1,.38.92,1.3,1.3,0,0,1-.38.92A1.32,1.32,0,0,1,56.75,27.05Z"/><path class="cls-2" d="M53.25,28.8a1.34,1.34,0,0,1-.92-.38,1.3,1.3,0,0,1,0-1.84,1.35,1.35,0,0,1,1.84,0,1.3,1.3,0,0,1,0,1.84A1.3,1.3,0,0,1,53.25,28.8Z"/><path class="cls-2" d="M50.25,29.8a1.34,1.34,0,0,1-.92-.38,1.3,1.3,0,0,1,0-1.84,1.36,1.36,0,0,1,1.84,0,1.3,1.3,0,0,1-.92,2.22Z"/><path class="cls-2" d="M52.5,33.55a1.34,1.34,0,0,1-.92-.38,1.3,1.3,0,0,1,0-1.84,1.36,1.36,0,0,1,1.84,0,1.3,1.3,0,0,1-.92,2.22Z"/><path class="cls-2" d="M56.75,31.05a1.34,1.34,0,0,1-.92-.38,1.3,1.3,0,0,1,0-1.84,1.36,1.36,0,0,1,1.84,0,1.32,1.32,0,0,1,.38.92,1.3,1.3,0,0,1-.38.92A1.32,1.32,0,0,1,56.75,31.05Z"/><path class="cls-2" d="M59.75,34.05a1.3,1.3,0,0,1-1.3-1.3,1.34,1.34,0,0,1,.38-.92,1.36,1.36,0,0,1,1.84,0,1.3,1.3,0,0,1-.92,2.22Z"/><path class="cls-2" d="M56,35.55a1.3,1.3,0,0,1-.92-2.22,1.35,1.35,0,0,1,1.84,0,1.3,1.3,0,0,1,0,1.84A1.3,1.3,0,0,1,56,35.55Z"/><path class="cls-2" d="M60,38.3a1.34,1.34,0,0,1-.92-.38,1.3,1.3,0,0,1,0-1.84,1.36,1.36,0,0,1,1.84,0A1.3,1.3,0,0,1,60,38.3Z"/><path class="cls-2" d="M64.5,34.8a1.31,1.31,0,0,1-1.3-1.3,1.32,1.32,0,0,1,.38-.92,1.35,1.35,0,0,1,1.84,0,1.3,1.3,0,0,1-.92,2.22Z"/><path class="cls-2" d="M64.25,38.05a1.34,1.34,0,0,1-.92-.38,1.3,1.3,0,0,1,0-1.84,1.36,1.36,0,0,1,1.84,0,1.3,1.3,0,0,1-.92,2.22Z"/><path class="cls-2" d="M61.5,42.3a1.34,1.34,0,0,1-.92-.38,1.3,1.3,0,0,1,0-1.84,1.36,1.36,0,0,1,1.84,0,1.3,1.3,0,0,1,0,1.84A1.3,1.3,0,0,1,61.5,42.3Z"/><path class="cls-2" d="M62.75,46.3a1.34,1.34,0,0,1-.92-.38,1.3,1.3,0,0,1,0-1.84,1.36,1.36,0,0,1,1.84,0,1.3,1.3,0,0,1,0,1.84A1.3,1.3,0,0,1,62.75,46.3Z"/><path class="cls-2" d="M57.5,46.8a1.34,1.34,0,0,1-.92-.38,1.3,1.3,0,0,1,0-1.84,1.36,1.36,0,0,1,1.84,0,1.3,1.3,0,0,1-.92,2.22Z"/><path class="cls-2" d="M60.25,49.05a1.32,1.32,0,0,1-.92-.38,1.34,1.34,0,0,1-.38-.92,1.32,1.32,0,0,1,.38-.92,1.36,1.36,0,0,1,1.84,0,1.32,1.32,0,0,1,.38.92,1.28,1.28,0,0,1-.38.92A1.32,1.32,0,0,1,60.25,49.05Z"/><path class="cls-2" d="M65.75,49.3a1.34,1.34,0,0,1-.92-.38,1.3,1.3,0,0,1,0-1.84,1.35,1.35,0,0,1,1.84,0,1.3,1.3,0,0,1,0,1.84A1.3,1.3,0,0,1,65.75,49.3Z"/><path class="cls-2" d="M65.5,43.55a1.34,1.34,0,0,1-.92-.38,1.3,1.3,0,0,1,0-1.84,1.36,1.36,0,0,1,1.84,0,1.3,1.3,0,0,1-.92,2.22Z"/><path class="cls-2" d="M50,49.05a1.34,1.34,0,0,1-.92-.38,1.32,1.32,0,0,1-.38-.92,1.34,1.34,0,0,1,.38-.92,1.36,1.36,0,0,1,1.84,0,1.3,1.3,0,0,1,0,1.84A1.32,1.32,0,0,1,50,49.05Z"/><path class="cls-2" d="M61.75,52.8a1.34,1.34,0,0,1-.92-.38,1.32,1.32,0,0,1-.38-.92,1.34,1.34,0,0,1,.38-.92,1.36,1.36,0,0,1,1.84,0,1.3,1.3,0,0,1-.92,2.22Z"/><path class="cls-2" d="M6.75,58.8a1.34,1.34,0,0,1-.92-.38,1.3,1.3,0,0,1,0-1.84,1.36,1.36,0,0,1,1.84,0,1.34,1.34,0,0,1,.38.92,1.3,1.3,0,0,1-1.3,1.3Z"/><path class="cls-2" d="M7.75,54.3a1.34,1.34,0,0,1-.92-.38,1.3,1.3,0,0,1,0-1.84,1.36,1.36,0,0,1,1.84,0,1.3,1.3,0,0,1-.92,2.22Z"/><path class="cls-2" d="M11,53.05a1.34,1.34,0,0,1-.92-.38,1.3,1.3,0,0,1,0-1.84,1.36,1.36,0,0,1,1.84,0A1.3,1.3,0,0,1,11,53.05Z"/><path class="cls-2" d="M10,57.05a1.34,1.34,0,0,1-.92-.38,1.3,1.3,0,0,1,0-1.84,1.36,1.36,0,0,1,1.84,0A1.3,1.3,0,0,1,10,57.05Z"/><path class="cls-2" d="M13.5,59.05a1.34,1.34,0,0,1-.92-.38,1.3,1.3,0,0,1,0-1.84,1.36,1.36,0,0,1,1.84,0,1.3,1.3,0,0,1-.92,2.22Z"/><path class="cls-2" d="M13.5,63.05a1.34,1.34,0,0,1-.92-.38,1.3,1.3,0,0,1,0-1.84,1.36,1.36,0,0,1,1.84,0,1.3,1.3,0,0,1-.92,2.22Z"/><path class="cls-2" d="M9.5,61.3a1.34,1.34,0,0,1-.92-.38,1.3,1.3,0,0,1,0-1.84,1.36,1.36,0,0,1,1.84,0,1.3,1.3,0,0,1,0,1.84A1.32,1.32,0,0,1,9.5,61.3Z"/><path class="cls-2" d="M17,60.05a1.3,1.3,0,0,1-.92-2.22,1.36,1.36,0,0,1,1.84,0,1.3,1.3,0,0,1,0,1.84A1.3,1.3,0,0,1,17,60.05Z"/><path class="cls-2" d="M17.25,63.05a1.3,1.3,0,0,1-1.3-1.3,1.34,1.34,0,0,1,.38-.92,1.36,1.36,0,0,1,1.84,0,1.34,1.34,0,0,1,.38.92,1.32,1.32,0,0,1-.38.92A1.3,1.3,0,0,1,17.25,63.05Z"/><path class="cls-2" d="M19,56.8a1.34,1.34,0,0,1-.92-.38,1.3,1.3,0,0,1,0-1.84,1.35,1.35,0,0,1,1.84,0A1.3,1.3,0,0,1,19,56.8Z"/><path class="cls-2" d="M22,54.55a1.34,1.34,0,0,1-.92-.38,1.3,1.3,0,0,1,0-1.84,1.36,1.36,0,0,1,1.84,0A1.3,1.3,0,0,1,22,54.55Z"/><path class="cls-2" d="M19,56.8a1.34,1.34,0,0,1-.92-.38,1.3,1.3,0,0,1,0-1.84,1.35,1.35,0,0,1,1.84,0A1.3,1.3,0,0,1,19,56.8Z"/><path class="cls-2" d="M22.25,58.3a1.34,1.34,0,0,1-.92-.38,1.3,1.3,0,0,1,0-1.84,1.36,1.36,0,0,1,1.84,0,1.3,1.3,0,0,1-.92,2.22Z"/><path class="cls-2" d="M25.25,62.55a1.34,1.34,0,0,1-.92-.38,1.3,1.3,0,0,1,0-1.84,1.36,1.36,0,0,1,1.84,0,1.29,1.29,0,0,1,.38.92,1.3,1.3,0,0,1-1.3,1.3Z"/><path class="cls-2" d="M20.25,61.55a1.34,1.34,0,0,1-.92-.38,1.3,1.3,0,0,1,0-1.84,1.36,1.36,0,0,1,1.84,0,1.3,1.3,0,0,1,0,1.84A1.3,1.3,0,0,1,20.25,61.55Z"/><path class="cls-2" d="M26,59.55a1.3,1.3,0,0,1-.92-2.22,1.36,1.36,0,0,1,1.84,0,1.3,1.3,0,0,1,0,1.84A1.3,1.3,0,0,1,26,59.55Z"/><path class="cls-2" d="M25.75,55.05a1.34,1.34,0,0,1-.92-.38,1.3,1.3,0,0,1,0-1.84,1.36,1.36,0,0,1,1.84,0,1.3,1.3,0,0,1-.92,2.22Z"/><path class="cls-2" d="M30,53.3a1.34,1.34,0,0,1-.92-.38,1.3,1.3,0,0,1,0-1.84,1.36,1.36,0,0,1,1.84,0,1.3,1.3,0,0,1,0,1.84A1.3,1.3,0,0,1,30,53.3Z"/><path class="cls-2" d="M29.25,56.3a1.3,1.3,0,0,1-.92-2.22,1.36,1.36,0,0,1,1.84,0,1.3,1.3,0,0,1,0,1.84A1.3,1.3,0,0,1,29.25,56.3Z"/><path class="cls-2" d="M30.5,60.05a1.3,1.3,0,0,1-1.3-1.3,1.3,1.3,0,1,1,2.6,0,1.3,1.3,0,0,1-1.3,1.3Z"/><path class="cls-2" d="M34.25,57.55a1.34,1.34,0,0,1-.92-.38,1.3,1.3,0,0,1,0-1.84,1.35,1.35,0,0,1,1.84,0,1.3,1.3,0,0,1-.92,2.22Z"/><path class="cls-2" d="M34,63.05a1.3,1.3,0,0,1-.92-2.22,1.36,1.36,0,0,1,1.84,0A1.3,1.3,0,0,1,34,63.05Z"/><path class="cls-2" d="M34.5,54.05a1.34,1.34,0,0,1-.92-.38,1.3,1.3,0,0,1,0-1.84,1.36,1.36,0,0,1,1.84,0,1.3,1.3,0,0,1-.92,2.22Z"/><path class="cls-2" d="M38,55.8a1.34,1.34,0,0,1-.92-.38,1.3,1.3,0,0,1,0-1.84,1.35,1.35,0,0,1,1.84,0A1.3,1.3,0,0,1,38,55.8Z"/><path class="cls-2" d="M14.75,55.05a1.3,1.3,0,0,1-1.3-1.3,1.34,1.34,0,0,1,.38-.92,1.36,1.36,0,0,1,1.84,0,1.34,1.34,0,0,1,.38.92,1.3,1.3,0,0,1-1.3,1.3Z"/><path class="cls-2" d="M37,59.8a1.34,1.34,0,0,1-.92-.38,1.3,1.3,0,0,1,0-1.84,1.35,1.35,0,0,1,1.84,0,1.28,1.28,0,0,1,.38.92A1.3,1.3,0,0,1,37,59.8Z"/><path class="cls-2" d="M3.5,65.3a1.3,1.3,0,0,1-.92-2.22,1.36,1.36,0,0,1,1.84,0A1.3,1.3,0,0,1,3.5,65.3Z"/><path class="cls-2" d="M2.5,69.3a1.3,1.3,0,0,1-.92-2.22,1.36,1.36,0,0,1,1.84,0A1.32,1.32,0,0,1,3.8,68a1.28,1.28,0,0,1-.38.92A1.32,1.32,0,0,1,2.5,69.3Z"/><path class="cls-2" d="M11.5,69.05a1.34,1.34,0,0,1-.92-.38,1.32,1.32,0,0,1-.38-.92,1.34,1.34,0,0,1,.38-.92,1.36,1.36,0,0,1,1.84,0,1.34,1.34,0,0,1,.38.92,1.3,1.3,0,0,1-1.3,1.3Z"/><path class="cls-2" d="M10.25,65.05a1.34,1.34,0,0,1-.92-.38,1.3,1.3,0,0,1,0-1.84,1.36,1.36,0,0,1,1.84,0,1.3,1.3,0,0,1-.92,2.22Z"/><path class="cls-2" d="M14.5,66.8a1.3,1.3,0,0,1-.92-2.22,1.36,1.36,0,0,1,1.84,0,1.34,1.34,0,0,1,.38.92,1.32,1.32,0,0,1-.38.92A1.3,1.3,0,0,1,14.5,66.8Z"/><path class="cls-2" d="M11.5,69.05a1.34,1.34,0,0,1-.92-.38,1.32,1.32,0,0,1-.38-.92,1.34,1.34,0,0,1,.38-.92,1.36,1.36,0,0,1,1.84,0,1.34,1.34,0,0,1,.38.92,1.3,1.3,0,0,1-1.3,1.3Z"/><path class="cls-2" d="M18.25,66.3a1.34,1.34,0,0,1-.92-.38A1.32,1.32,0,0,1,17,65a1.3,1.3,0,0,1,2.22-.92,1.3,1.3,0,0,1-.92,2.22Z"/><path class="cls-2" d="M22.5,65.55a1.34,1.34,0,0,1-.92-.38,1.32,1.32,0,0,1-.38-.92,1.3,1.3,0,1,1,2.6,0,1.3,1.3,0,0,1-1.3,1.3Z"/><path class="cls-2" d="M21.75,68.55a1.34,1.34,0,0,1-.92-.38,1.3,1.3,0,0,1,0-1.84,1.3,1.3,0,0,1,2.22.92,1.32,1.32,0,0,1-.38.92A1.3,1.3,0,0,1,21.75,68.55Z"/><path class="cls-2" d="M26.75,69.8a1.34,1.34,0,0,1-.92-.38,1.3,1.3,0,0,1,0-1.84,1.36,1.36,0,0,1,1.84,0,1.3,1.3,0,0,1-.92,2.22Z"/><path class="cls-2" d="M27,66.3a1.34,1.34,0,0,1-.92-.38,1.3,1.3,0,0,1,0-1.84,1.35,1.35,0,0,1,1.84,0A1.3,1.3,0,0,1,27,66.3Z"/><path class="cls-2" d="M31,68.8a1.34,1.34,0,0,1-.92-.38,1.3,1.3,0,0,1,0-1.84,1.35,1.35,0,0,1,1.84,0A1.3,1.3,0,0,1,31,68.8Z"/><path class="cls-2" d="M34.25,67.3a1.34,1.34,0,0,1-.92-.38,1.3,1.3,0,0,1,0-1.84,1.35,1.35,0,0,1,1.84,0,1.3,1.3,0,0,1-.92,2.22Z"/><path class="cls-2" d="M7.25,67.3a1.34,1.34,0,0,1-.92-.38,1.3,1.3,0,0,1,0-1.84,1.35,1.35,0,0,1,1.84,0,1.3,1.3,0,0,1-.92,2.22Z"/><path class="cls-2" d="M41.5,52.3a1.34,1.34,0,0,1-.92-.38,1.3,1.3,0,0,1,0-1.84,1.36,1.36,0,0,1,1.84,0,1.3,1.3,0,0,1-.92,2.22Z"/><path class="cls-2" d="M44,58.55a1.34,1.34,0,0,1-.92-.38,1.3,1.3,0,0,1,0-1.84,1.36,1.36,0,0,1,1.84,0A1.3,1.3,0,0,1,44,58.55Z"/><path class="cls-2" d="M44.5,54.55a1.3,1.3,0,0,1-.92-2.22,1.36,1.36,0,0,1,1.84,0,1.3,1.3,0,0,1-.92,2.22Z"/><path class="cls-2" d="M49.25,53.55a1.3,1.3,0,0,1-1.3-1.3,1.34,1.34,0,0,1,.38-.92,1.36,1.36,0,0,1,1.84,0,1.3,1.3,0,0,1,0,1.84A1.3,1.3,0,0,1,49.25,53.55Z"/><path class="cls-2" d="M50,58.3a1.3,1.3,0,0,1-.92-2.22,1.36,1.36,0,0,1,1.84,0A1.3,1.3,0,0,1,50,58.3Z"/><path class="cls-2" d="M47,61.05a1.34,1.34,0,0,1-.92-.38,1.3,1.3,0,0,1,0-1.84,1.36,1.36,0,0,1,1.84,0A1.3,1.3,0,0,1,47,61.05Z"/><path class="cls-2" d="M43.75,62.8a1.34,1.34,0,0,1-.92-.38,1.3,1.3,0,0,1,0-1.84,1.35,1.35,0,0,1,1.84,0,1.3,1.3,0,0,1-.92,2.22Z"/><path class="cls-2" d="M44,58.55a1.34,1.34,0,0,1-.92-.38,1.3,1.3,0,0,1,0-1.84,1.36,1.36,0,0,1,1.84,0A1.3,1.3,0,0,1,44,58.55Z"/><path class="cls-2" d="M41.75,66.05a1.34,1.34,0,0,1-.92-.38,1.3,1.3,0,0,1,0-1.84,1.36,1.36,0,0,1,1.84,0,1.3,1.3,0,0,1-.92,2.22Z"/><path class="cls-2" d="M46.5,65.8a1.34,1.34,0,0,1-.92-.38,1.3,1.3,0,0,1,0-1.84,1.36,1.36,0,0,1,1.84,0,1.3,1.3,0,0,1-.92,2.22Z"/><path class="cls-2" d="M50,67.05a1.34,1.34,0,0,1-.92-.38,1.3,1.3,0,0,1,0-1.84,1.3,1.3,0,0,1,1.84,1.84A1.32,1.32,0,0,1,50,67.05Z"/><path class="cls-2" d="M50.25,62.55a1.34,1.34,0,0,1-.92-.38,1.3,1.3,0,0,1,0-1.84,1.36,1.36,0,0,1,1.84,0,1.3,1.3,0,0,1-.92,2.22Z"/><path class="cls-2" d="M3.25,61.05a1.3,1.3,0,0,1-.92-2.22,1.35,1.35,0,0,1,1.84,0,1.34,1.34,0,0,1,.38.92,1.3,1.3,0,0,1-1.3,1.3Z"/><path class="cls-2" d="M3.75,56.3a1.3,1.3,0,0,1-.92-2.22,1.36,1.36,0,0,1,1.84,0,1.3,1.3,0,0,1-.92,2.22Z"/><path class="cls-2" d="M70,69.05a1.34,1.34,0,0,1-.92-.38,1.3,1.3,0,0,1,0-1.84,1.36,1.36,0,0,1,1.84,0A1.3,1.3,0,0,1,70,69.05Z"/><path class="cls-2" d="M66.75,67.55a1.3,1.3,0,0,1-.92-2.22,1.35,1.35,0,0,1,1.84,0,1.3,1.3,0,0,1,0,1.84A1.3,1.3,0,0,1,66.75,67.55Z"/><path class="cls-2" d="M72.75,66.55a1.34,1.34,0,0,1-.92-.38,1.3,1.3,0,0,1,0-1.84,1.36,1.36,0,0,1,1.84,0,1.3,1.3,0,0,1-.92,2.22Z"/><path class="cls-2" d="M69.5,53.8a1.34,1.34,0,0,1-.92-.38,1.3,1.3,0,0,1,0-1.84,1.36,1.36,0,0,1,1.84,0,1.3,1.3,0,0,1-.92,2.22Z"/><path class="cls-2" d="M69.25,59.05a1.3,1.3,0,0,1-.92-2.22,1.36,1.36,0,0,1,1.84,0,1.3,1.3,0,0,1-.92,2.22Z"/><path class="cls-2" d="M69.5,53.8a1.34,1.34,0,0,1-.92-.38,1.3,1.3,0,0,1,0-1.84,1.36,1.36,0,0,1,1.84,0,1.3,1.3,0,0,1-.92,2.22Z"/><path class="cls-2" d="M71,62.8a1.3,1.3,0,0,1-.92-2.22,1.36,1.36,0,0,1,1.84,0A1.3,1.3,0,0,1,71,62.8Z"/><path class="cls-2" d="M39.25,63.3a1.3,1.3,0,0,1-.92-2.22,1.35,1.35,0,0,1,1.84,0,1.3,1.3,0,0,1,0,1.84A1.3,1.3,0,0,1,39.25,63.3Z"/><path class="cls-2" d="M37.75,66.3a1.3,1.3,0,0,1-.92-2.22,1.35,1.35,0,0,1,1.84,0,1.3,1.3,0,0,1,0,1.84A1.3,1.3,0,0,1,37.75,66.3Z"/><path class="cls-2" d="M53,60.55a1.34,1.34,0,0,1-.92-.38,1.32,1.32,0,0,1-.38-.92,1.34,1.34,0,0,1,.38-.92,1.36,1.36,0,0,1,1.84,0,1.34,1.34,0,0,1,.38.92,1.32,1.32,0,0,1-.38.92A1.3,1.3,0,0,1,53,60.55Z"/><path class="cls-2" d="M56,61.05a1.3,1.3,0,0,1-.92-2.22,1.36,1.36,0,0,1,1.84,0A1.3,1.3,0,0,1,56,61.05Z"/><path class="cls-2" d="M53.5,65.05a1.34,1.34,0,0,1-.92-.38,1.3,1.3,0,0,1,0-1.84,1.36,1.36,0,0,1,1.84,0,1.3,1.3,0,0,1-.92,2.22Z"/><path class="cls-2" d="M57.5,64.8a1.34,1.34,0,0,1-.92-.38,1.3,1.3,0,0,1,0-1.84,1.36,1.36,0,0,1,1.84,0,1.3,1.3,0,0,1-.92,2.22Z"/><path class="cls-2" d="M53,60.55a1.34,1.34,0,0,1-.92-.38,1.32,1.32,0,0,1-.38-.92,1.34,1.34,0,0,1,.38-.92,1.36,1.36,0,0,1,1.84,0,1.34,1.34,0,0,1,.38.92,1.32,1.32,0,0,1-.38.92A1.3,1.3,0,0,1,53,60.55Z"/><path class="cls-2" d="M56,61.05a1.3,1.3,0,0,1-.92-2.22,1.36,1.36,0,0,1,1.84,0A1.3,1.3,0,0,1,56,61.05Z"/><path class="cls-2" d="M53.75,56.55a1.3,1.3,0,0,1-.92-2.22,1.36,1.36,0,0,1,1.84,0,1.3,1.3,0,0,1,0,1.84A1.3,1.3,0,0,1,53.75,56.55Z"/><path class="cls-2" d="M57.75,58.05a1.34,1.34,0,0,1-.92-.38,1.3,1.3,0,0,1,0-1.84,1.36,1.36,0,0,1,1.84,0,1.3,1.3,0,0,1-.92,2.22Z"/><path class="cls-2" d="M60,61.3a1.34,1.34,0,0,1-.92-.38,1.3,1.3,0,0,1,0-1.84,1.36,1.36,0,0,1,1.84,0A1.3,1.3,0,0,1,60,61.3Z"/><path class="cls-2" d="M62,63.55a1.3,1.3,0,0,1-1.3-1.3,1.34,1.34,0,0,1,.38-.92,1.36,1.36,0,0,1,1.84,0,1.3,1.3,0,0,1,0,1.84A1.3,1.3,0,0,1,62,63.55Z"/><path class="cls-2" d="M62.5,67.55a1.34,1.34,0,0,1-.92-.38,1.3,1.3,0,0,1,0-1.84,1.36,1.36,0,0,1,1.84,0,1.3,1.3,0,0,1-.92,2.22Z"/><path class="cls-2" d="M64.5,60.05a1.3,1.3,0,0,1-.92-2.22,1.35,1.35,0,0,1,1.84,0,1.3,1.3,0,0,1,0,1.84A1.3,1.3,0,0,1,64.5,60.05Z"/><path class="cls-2" d="M62.75,57.55a1.3,1.3,0,0,1-1.3-1.3,1.32,1.32,0,0,1,.38-.92,1.36,1.36,0,0,1,1.84,0,1.3,1.3,0,0,1-.92,2.22Z"/><path class="cls-2" d="M58.5,54.55a1.34,1.34,0,0,1-.92-.38,1.3,1.3,0,0,1,0-1.84,1.36,1.36,0,0,1,1.84,0,1.3,1.3,0,0,1-.92,2.22Z"/><path class="cls-2" d="M66.5,56.3a1.34,1.34,0,0,1-.92-.38,1.3,1.3,0,0,1,0-1.84,1.36,1.36,0,0,1,1.84,0,1.3,1.3,0,0,1-.92,2.22Z"/><path class="cls-2" d="M66.75,63.55a1.3,1.3,0,0,1-.92-2.22,1.35,1.35,0,0,1,1.84,0,1.3,1.3,0,0,1,0,1.84A1.3,1.3,0,0,1,66.75,63.55Z"/><path class="cls-2" d="M53.5,53.05a1.34,1.34,0,0,1-.92-.38,1.3,1.3,0,0,1,0-1.84,1.36,1.36,0,0,1,1.84,0,1.3,1.3,0,0,1-.92,2.22Z"/><path class="cls-2" d="M58.25,68.3a1.3,1.3,0,0,1-.92-2.22,1.36,1.36,0,0,1,1.84,0,1.3,1.3,0,0,1,0,1.84A1.3,1.3,0,0,1,58.25,68.3Z"/><path class="cls-2" d="M64.25,70.3a1.34,1.34,0,0,1-.92-.38,1.3,1.3,0,0,1,0-1.84,1.36,1.36,0,0,1,1.84,0,1.3,1.3,0,0,1-.92,2.22Z"/><path class="cls-2" d="M65.25,52.8a1.3,1.3,0,0,1-.92-2.22,1.36,1.36,0,0,1,1.84,0,1.3,1.3,0,0,1-.92,2.22Z"/><path class="cls-2" d="M9.5,26.3a1.34,1.34,0,0,1-.92-.38,1.3,1.3,0,0,1,0-1.84,1.36,1.36,0,0,1,1.84,0,1.28,1.28,0,0,1,.38.92,1.29,1.29,0,0,1-.38.92A1.32,1.32,0,0,1,9.5,26.3Z"/><path class="cls-2" d="M5.75,62.8a1.34,1.34,0,0,1-.92-.38,1.3,1.3,0,0,1,0-1.84,1.36,1.36,0,0,1,1.84,0,1.3,1.3,0,0,1,0,1.84A1.32,1.32,0,0,1,5.75,62.8Z"/><path class="cls-2" d="M30.25,63.8a1.34,1.34,0,0,1-.92-.38,1.3,1.3,0,0,1,0-1.84,1.36,1.36,0,0,1,1.84,0,1.3,1.3,0,0,1-.92,2.22Z"/><path class="cls-2" d="M40.5,58.3a1.34,1.34,0,0,1-.92-.38,1.3,1.3,0,0,1,0-1.84,1.36,1.36,0,0,1,1.84,0,1.3,1.3,0,0,1-.92,2.22Z"/><path class="cls-2" d="M47.25,56.8a1.3,1.3,0,0,1-.92-2.22,1.35,1.35,0,0,1,1.84,0,1.3,1.3,0,0,1-.92,2.22Z"/><path class="cls-2" d="M41,72.8a1.34,1.34,0,0,1-.92-.38,1.3,1.3,0,0,1,0-1.84,1.36,1.36,0,0,1,1.84,0A1.3,1.3,0,0,1,41,72.8Z"/><path class="cls-2" d="M11.5,74.05a1.34,1.34,0,0,1-.92-.38,1.3,1.3,0,0,1,0-1.84,1.36,1.36,0,0,1,1.84,0,1.3,1.3,0,0,1-.92,2.22Z"/><path class="cls-2" d="M21.25,73.8a1.34,1.34,0,0,1-.92-.38A1.32,1.32,0,0,1,20,72.5a1.34,1.34,0,0,1,.38-.92,1.36,1.36,0,0,1,1.84,0,1.3,1.3,0,0,1-.92,2.22Z"/><path class="cls-2" d="M17,74.55a1.3,1.3,0,0,1-.92-2.22,1.36,1.36,0,0,1,1.84,0,1.3,1.3,0,0,1,0,1.84A1.3,1.3,0,0,1,17,74.55Z"/><path class="cls-2" d="M27.75,74.55a1.3,1.3,0,0,1-.92-2.22,1.36,1.36,0,0,1,1.84,0,1.3,1.3,0,0,1,0,1.84A1.3,1.3,0,0,1,27.75,74.55Z"/><path class="cls-2" d="M55,73.55a1.3,1.3,0,0,1-.92-2.22,1.36,1.36,0,0,1,1.84,0A1.3,1.3,0,0,1,55,73.55Z"/><path class="cls-2" d="M7.75,74.05a1.34,1.34,0,0,1-.92-.38,1.3,1.3,0,0,1,0-1.84,1.36,1.36,0,0,1,1.84,0,1.32,1.32,0,0,1,.38.92,1.34,1.34,0,0,1-.38.92A1.32,1.32,0,0,1,7.75,74.05Z"/><path class="cls-2" d="M55,73.55a1.3,1.3,0,0,1-.92-2.22,1.36,1.36,0,0,1,1.84,0A1.3,1.3,0,0,1,55,73.55Z"/><path class="cls-2" d="M72.5,10.3A1.3,1.3,0,0,1,71.2,9a1.3,1.3,0,0,1,2.22-.92A1.32,1.32,0,0,1,73.8,9a1.3,1.3,0,0,1-.38.92A1.32,1.32,0,0,1,72.5,10.3Z"/><path class="cls-2" d="M72.75,13.55a1.34,1.34,0,0,1-.92-.38,1.3,1.3,0,0,1,0-1.84,1.35,1.35,0,0,1,1.84,0,1.3,1.3,0,0,1-.92,2.22Z"/><path class="cls-2" d="M73,20.8a1.3,1.3,0,0,1-.92-2.22,1.36,1.36,0,0,1,1.84,0A1.3,1.3,0,0,1,73,20.8Z"/><path class="cls-2" d="M72.25,24.05a1.3,1.3,0,0,1-.92-2.22,1.36,1.36,0,0,1,1.84,0,1.3,1.3,0,0,1-.92,2.22Z"/><path class="cls-2" d="M72.75,72.05a1.34,1.34,0,0,1-.92-.38,1.3,1.3,0,0,1,0-1.84,1.35,1.35,0,0,1,1.84,0,1.3,1.3,0,0,1-.92,2.22Z"/><path class="cls-2" d="M73.25,46.55a1.34,1.34,0,0,1-.92-.38,1.3,1.3,0,0,1,0-1.84,1.35,1.35,0,0,1,1.84,0,1.3,1.3,0,0,1-.92,2.22Z"/><path class="cls-2" d="M72.25,57.3a1.3,1.3,0,0,1-.92-2.22,1.36,1.36,0,0,1,1.84,0,1.3,1.3,0,0,1-.92,2.22Z"/><path class="cls-2" d="M73.25,53.3a1.3,1.3,0,0,1-.92-2.22,1.36,1.36,0,0,1,1.84,0,1.3,1.3,0,0,1-.92,2.22Z"/><path class="cls-2" d="M46.25,71.8a1.34,1.34,0,0,1-.92-.38A1.32,1.32,0,0,1,45,70.5a1.34,1.34,0,0,1,.38-.92,1.36,1.36,0,0,1,1.84,0,1.34,1.34,0,0,1,.38.92,1.3,1.3,0,0,1-1.3,1.3Z"/><path class="cls-2" d="M40.5,69.3a1.34,1.34,0,0,1-.92-.38,1.3,1.3,0,0,1,0-1.84,1.36,1.36,0,0,1,1.84,0,1.3,1.3,0,0,1-.92,2.22Z"/><path class="cls-2" d="M-1.25,3.3a1.34,1.34,0,0,1-.92-.38A1.34,1.34,0,0,1-2.55,2a1.32,1.32,0,0,1,.38-.92,1.36,1.36,0,0,1,1.84,0A1.32,1.32,0,0,1,.05,2a1.32,1.32,0,0,1-.38.92A1.32,1.32,0,0,1-1.25,3.3Z"/><path class="cls-2" d="M-.5,18.05a1.34,1.34,0,0,1-.92-.38,1.32,1.32,0,0,1-.38-.92,1.32,1.32,0,0,1,.38-.92,1.36,1.36,0,0,1,1.84,0,1.32,1.32,0,0,1,.38.92,1.32,1.32,0,0,1-.38.92A1.32,1.32,0,0,1-.5,18.05Z"/><path class="cls-2" d="M-.75,29.05a1.34,1.34,0,0,1-.92-.38A1.32,1.32,0,0,1-2,27.75a1.32,1.32,0,0,1,.38-.92,1.36,1.36,0,0,1,1.84,0,1.32,1.32,0,0,1,.38.92,1.32,1.32,0,0,1-.38.92A1.32,1.32,0,0,1-.75,29.05Z"/><path class="cls-2" d="M-.5,39.05a1.32,1.32,0,0,1-.92-.38,1.32,1.32,0,0,1-.38-.92,1.32,1.32,0,0,1,.38-.92,1.36,1.36,0,0,1,1.84,0,1.32,1.32,0,0,1,.38.92,1.32,1.32,0,0,1-.38.92A1.32,1.32,0,0,1-.5,39.05Z"/><path class="cls-2" d="M-1.25,43.05a1.34,1.34,0,0,1-.92-.38,1.32,1.32,0,0,1-.38-.92,1.34,1.34,0,0,1,.38-.92,1.36,1.36,0,0,1,1.84,0,1.32,1.32,0,0,1,.38.92,1.32,1.32,0,0,1-.38.92A1.32,1.32,0,0,1-1.25,43.05Z"/><path class="cls-2" d="M.75,66.55a1.34,1.34,0,0,1-.92-.38,1.3,1.3,0,0,1,0-1.84,1.36,1.36,0,0,1,1.84,0,1.3,1.3,0,0,1,0,1.84A1.32,1.32,0,0,1,.75,66.55Z"/><path class="cls-2" d="M-1,62.8a1.32,1.32,0,0,1-.92-.38,1.32,1.32,0,0,1-.38-.92,1.32,1.32,0,0,1,.38-.92,1.36,1.36,0,0,1,1.84,0,1.32,1.32,0,0,1,.38.92,1.32,1.32,0,0,1-.38.92A1.32,1.32,0,0,1-1,62.8Z"/><path class="cls-2" d="M.5,10.3a1.32,1.32,0,0,1-.92-.38A1.32,1.32,0,0,1-.8,9a1.34,1.34,0,0,1,.38-.92,1.34,1.34,0,0,1,1.84,0A1.32,1.32,0,0,1,1.8,9a1.3,1.3,0,0,1-.38.92A1.32,1.32,0,0,1,.5,10.3Z"/><path class="cls-2" d="M.75,13.55a1.34,1.34,0,0,1-.92-.38,1.3,1.3,0,0,1,0-1.84,1.35,1.35,0,0,1,1.84,0,1.3,1.3,0,0,1,0,1.84A1.32,1.32,0,0,1,.75,13.55Z"/><path class="cls-2" d="M1,20.8a1.32,1.32,0,0,1-.92-.38,1.3,1.3,0,0,1,0-1.84,1.36,1.36,0,0,1,1.84,0,1.3,1.3,0,0,1,0,1.84A1.32,1.32,0,0,1,1,20.8Z"/><path class="cls-2" d="M.25,24.05a1.32,1.32,0,0,1-.92-.38,1.3,1.3,0,0,1,0-1.84,1.36,1.36,0,0,1,1.84,0,1.3,1.3,0,0,1,0,1.84A1.32,1.32,0,0,1,.25,24.05Z"/><path class="cls-2" d="M.75,72.05a1.34,1.34,0,0,1-.92-.38,1.3,1.3,0,0,1,0-1.84,1.35,1.35,0,0,1,1.84,0,1.3,1.3,0,0,1,0,1.84A1.32,1.32,0,0,1,.75,72.05Z"/><path class="cls-2" d="M1.25,46.55a1.34,1.34,0,0,1-.92-.38,1.3,1.3,0,0,1,0-1.84,1.35,1.35,0,0,1,1.84,0,1.3,1.3,0,0,1,0,1.84A1.32,1.32,0,0,1,1.25,46.55Z"/><path class="cls-2" d="M.25,57.3a1.32,1.32,0,0,1-.92-.38,1.3,1.3,0,0,1,0-1.84,1.36,1.36,0,0,1,1.84,0,1.3,1.3,0,0,1,0,1.84A1.32,1.32,0,0,1,.25,57.3Z"/><path class="cls-2" d="M1.25,53.3a1.32,1.32,0,0,1-.92-.38,1.3,1.3,0,0,1,0-1.84,1.36,1.36,0,0,1,1.84,0,1.3,1.3,0,0,1,0,1.84A1.32,1.32,0,0,1,1.25,53.3Z"/><path class="cls-2" d="M67.75.55a1.32,1.32,0,0,1-.92-.38,1.32,1.32,0,0,1-.38-.92,1.32,1.32,0,0,1,.38-.92,1.36,1.36,0,0,1,1.84,0,1.32,1.32,0,0,1,.38.92,1.32,1.32,0,0,1-.38.92A1.3,1.3,0,0,1,67.75.55Z"/><path class="cls-2" d="M55,1.55a1.32,1.32,0,0,1-.92-.38A1.32,1.32,0,0,1,53.7.25a1.32,1.32,0,0,1,.38-.92,1.36,1.36,0,0,1,1.84,0,1.32,1.32,0,0,1,.38.92,1.32,1.32,0,0,1-.38.92A1.32,1.32,0,0,1,55,1.55Z"/><path class="cls-2" d="M41,.8a1.34,1.34,0,0,1-.92-.38A1.32,1.32,0,0,1,39.7-.5a1.32,1.32,0,0,1,.38-.92,1.36,1.36,0,0,1,1.84,0,1.32,1.32,0,0,1,.38.92,1.32,1.32,0,0,1-.38.92A1.32,1.32,0,0,1,41,.8Z"/><path class="cls-2" d="M11.5,2.05a1.34,1.34,0,0,1-.92-.38A1.32,1.32,0,0,1,10.2.75a1.32,1.32,0,0,1,.38-.92,1.36,1.36,0,0,1,1.84,0,1.32,1.32,0,0,1,.38.92,1.32,1.32,0,0,1-.38.92A1.32,1.32,0,0,1,11.5,2.05Z"/><path class="cls-2" d="M21.25,1.8a1.34,1.34,0,0,1-.92-.38A1.32,1.32,0,0,1,20,.5a1.34,1.34,0,0,1,.38-.92,1.36,1.36,0,0,1,1.84,0,1.32,1.32,0,0,1,.38.92,1.32,1.32,0,0,1-.38.92A1.32,1.32,0,0,1,21.25,1.8Z"/><path class="cls-2" d="M17,2.55a1.32,1.32,0,0,1-.92-.38,1.32,1.32,0,0,1-.38-.92,1.32,1.32,0,0,1,.38-.92,1.36,1.36,0,0,1,1.84,0,1.32,1.32,0,0,1,.38.92,1.32,1.32,0,0,1-.38.92A1.3,1.3,0,0,1,17,2.55Z"/><path class="cls-2" d="M27.75,2.55a1.32,1.32,0,0,1-.92-.38,1.32,1.32,0,0,1-.38-.92,1.32,1.32,0,0,1,.38-.92,1.36,1.36,0,0,1,1.84,0,1.32,1.32,0,0,1,.38.92,1.32,1.32,0,0,1-.38.92A1.3,1.3,0,0,1,27.75,2.55Z"/><path class="cls-2" d="M55,1.55a1.32,1.32,0,0,1-.92-.38A1.32,1.32,0,0,1,53.7.25a1.32,1.32,0,0,1,.38-.92,1.36,1.36,0,0,1,1.84,0,1.32,1.32,0,0,1,.38.92,1.32,1.32,0,0,1-.38.92A1.32,1.32,0,0,1,55,1.55Z"/><path class="cls-2" d="M7.75,2.05a1.34,1.34,0,0,1-.92-.38A1.32,1.32,0,0,1,6.45.75a1.32,1.32,0,0,1,.38-.92,1.36,1.36,0,0,1,1.84,0,1.32,1.32,0,0,1,.38.92,1.34,1.34,0,0,1-.38.92A1.32,1.32,0,0,1,7.75,2.05Z"/><path class="cls-2" d="M55,1.55a1.32,1.32,0,0,1-.92-.38A1.32,1.32,0,0,1,53.7.25a1.32,1.32,0,0,1,.38-.92,1.36,1.36,0,0,1,1.84,0,1.32,1.32,0,0,1,.38.92,1.32,1.32,0,0,1-.38.92A1.32,1.32,0,0,1,55,1.55Z"/><path class="cls-2" d="M72.75.05a1.34,1.34,0,0,1-.92-.38,1.32,1.32,0,0,1-.38-.92,1.32,1.32,0,0,1,.38-.92,1.35,1.35,0,0,1,1.84,0,1.32,1.32,0,0,1,.38.92,1.32,1.32,0,0,1-.38.92A1.32,1.32,0,0,1,72.75.05Z"/><path class="cls-2" d="M.75.05A1.34,1.34,0,0,1-.17-.33a1.32,1.32,0,0,1-.38-.92,1.32,1.32,0,0,1,.38-.92,1.35,1.35,0,0,1,1.84,0,1.32,1.32,0,0,1,.38.92,1.32,1.32,0,0,1-.38.92A1.32,1.32,0,0,1,.75.05Z"/></pattern></defs><title>MichelleW</title><g id="Layer_2" data-name="Layer 2"><g id="Layer_1-2" data-name="Layer 1"><g id="Layer_1-2-2" data-name="Layer 1-2"><path class="cls-3" d="M16.66,1.25,58.24,11.4q8.74,28.5,18,56,12-23.33,24.36-45.68L141,31.58q-7.41,95.3-9.25,190.84l-45-2.7q.93-48.56,3.25-97.09h-.3q-10.83,21.93-21.36,44.7-9.15-24.89-17.91-50.59h-.3q-2.4,50.3-3.37,100.64L6.3,214.92Q8.37,108,16.66,1.25Z"/><path class="cls-3" d="M154.11,34.81l44.57,10.88q-7,90-8.74,180.23l-45-2.7Q146.8,128.95,154.11,34.81Z"/><path class="cls-3" d="M272.76,61.25c12.26,3,24.65,10.25,31.14,17.18q-2.23,29.63-3.82,59.27c-7.22-6.8-16.41-13.25-26.48-15.07-15.31-2.81-24.26,7.22-25,23s7.11,28.09,22.48,29.88c10.09,1.21,20.35-2.11,28.14-7.31q-1.2,28.31-1.82,56.63c-7.21,5-20.42,8.82-33.4,8.1-36.49-1.5-62.74-42-60.16-95.49C206.42,84.13,236.06,51.53,272.76,61.25Z"/><path class="cls-3" d="M317.29,74.64l44.57,10.88q-1.8,23.22-3.2,46.46l22.53,4.2q1.35-22.61,3.1-45.18l44.57,10.88q-5.34,68.9-6.68,138l-45-2.69q.51-26.67,1.59-53.32L356.17,181q-1.11,27.4-1.64,54.82l-45-2.69Q311.18,153.8,317.29,74.64Z"/><path class="cls-3" d="M442,105.1l77.92,19q-1.56,20.24-2.75,40.49l-33.49-6.1c-.14,2.29-.27,4.57-.39,6.86L510.37,170q-.78,14.53-1.4,29.09l-27.1-3.48c-.1,2.4-.2,4.81-.29,7.21l35.7,4.21q-.72,19.2-1.09,38.41l-80.73-4.83Q436.78,172.8,442,105.1Z"/><path class="cls-3" d="M533.17,127.33l44.52,10.92q-2.78,35.64-4.2,71.33l33.73,4.21q-.74,18.47-1.05,37.06l-78.77-4.72Q528.51,186.69,533.17,127.33Z"/><path class="cls-3" d="M622.86,149.25l44.57,10.88q-2.37,30.33-3.58,60.7L697.59,225q-.63,15.61-.92,31.25l-78.77-4.72Q618.88,200.34,622.86,149.25Z"/><path class="cls-3" d="M712.6,171.15l77.92,19q-.93,11.94-1.62,23.89L755.4,208c-.08,1.39-.16,2.78-.23,4.18l27,4.65q-.48,8.64-.83,17.27l-27.11-3.48c-.06,1.47-.12,2.94-.17,4.4l35.7,4.22q-.42,11.3-.64,22.61L708.39,257Q709.28,214,712.6,171.15Z"/><path class="cls-3" d="M1.17,355.85l48-2.88q6.34,47.49,14,94h.3q2.4-48,6.11-95.2L99.91,350q5.4,45.41,12,90h.3q3.39-46,8-91.18l43.45-2.6Q149.38,439.71,140.77,539l-39.33,9.6Q93.81,511.17,87,473.06l-.31.05q-2.43,39.7-4,80l-39.48,9.63Q19.31,462.32,1.17,355.85Z"/><path class="cls-3" d="M175.17,445.82q-2.55-50.07-3.52-100.19l45-2.69q.9,45.45,3.13,90.88c.81,16.49,4.83,27.52,15.18,25.57,9.92-1.86,12.76-12.37,11.9-29.53q-2.19-44.25-3-88.55l40.43-2.42q.85,44.06,3.09,88.1c1.28,25-1.85,41.53-6.83,53.25a65.34,65.34,0,0,1-44.23,38c-19,4.73-36.54-.87-47.44-17.64C182.73,491.3,176.76,475.77,175.17,445.82Z"/><path class="cls-3" d="M297.39,338.1,376,333.39q.48,24.48,1.42,48.95l-33.59,4.07.33,8.21,27.1-3.54Q372,408.6,373,426.13l-27.05,4.72q.24,4.32.5,8.63L382,432.9q1.38,23.18,3.15,46.35l-80,19.54Q298.93,418.54,297.39,338.1Z"/><path class="cls-3" d="M389.28,332.59,433,330c16.5-1,51.07-.84,52,29.15.36,10.67-3.59,21-15.39,27.72v.36c16.12,4.73,20.32,15.85,21,27.17,2.06,32.92-27.81,45.81-48.95,51.06l-45.47,11.1Q390.68,404.65,389.28,332.59Zm48.34,52.25c5.72-.78,8.27-4.84,8.09-9.46-.19-4.8-3.17-8-8.75-7.39l-1.66.19q.3,8.43.66,16.88Zm2.62,44.09c7.05-1.39,10.07-6.63,9.74-12.34s-4-9.73-10.94-8.6l-2,.32q.56,10.5,1.21,21Z"/><path class="cls-3" d="M496.88,326.15l43.76-2.62c16.49-1,51.08-1.14,51.88,24.16.3,9-3.71,17.8-15.55,23.8v.3c16.07,3.67,20.18,12.95,20.75,22.52,1.74,27.75-28.23,39.84-49.36,45.09l-45.47,11.1Q498.08,388.4,496.88,326.15ZM545,370.43c5.72-.78,8.29-4.3,8.14-8.24-.17-4.1-3.13-6.78-8.71-6.17l-1.66.19q.25,7.21.57,14.44Zm2.28,37.71c7-1.39,10.11-6,9.83-10.82s-3.91-8.22-10.86-7.07l-2,.32q.47,9,1,18Z"/><path class="cls-3" d="M604.47,319.7,683.09,315q.3,15.13.87,30.25l-33.59,4.07.21,5.2,27.1-3.55q.48,10.89,1.07,21.77l-27,4.73c.1,1.82.21,3.64.32,5.47l35.59-6.59q.84,14.3,1.95,28.59l-80,19.53Q605.48,372.16,604.47,319.7Z"/><path class="cls-3" d="M696.37,314.25l40.89-2.45q16.4,16.24,33.15,30l.3-.14q-.69-15.89-1-31.79l40.46-2.49q.65,33.69,3.27,67.31l-40.54,9.9A427.92,427.92,0,0,1,738.8,358l-.29.16q.9,17.16,2.24,34.3l-40.12,9.81Q697.18,358.26,696.37,314.25Z"/></g><path class="cls-4" d="M16.66,1.25,58.24,11.4q8.74,28.5,18,56,12-23.33,24.36-45.68L141,31.58q-7.41,95.3-9.25,190.84l-45-2.7q.93-48.56,3.25-97.09h-.3q-10.83,21.93-21.36,44.7-9.15-24.89-17.91-50.59h-.3q-2.4,50.3-3.37,100.64L6.3,214.92Q8.37,108,16.66,1.25ZM154.11,34.81l44.57,10.88q-7,90-8.74,180.23l-45-2.7Q146.8,128.95,154.11,34.81ZM272.76,61.25c12.26,3,24.65,10.25,31.14,17.18q-2.23,29.63-3.82,59.27c-7.22-6.8-16.41-13.25-26.48-15.07-15.31-2.81-24.26,7.22-25,23s7.11,28.09,22.48,29.88c10.09,1.21,20.35-2.11,28.14-7.31q-1.2,28.31-1.82,56.63c-7.21,5-20.42,8.82-33.4,8.1-36.49-1.5-62.74-42-60.16-95.49C206.42,84.13,236.06,51.53,272.76,61.25Zm44.53,13.39,44.57,10.88q-1.8,23.22-3.2,46.46l22.53,4.2q1.35-22.61,3.1-45.18l44.57,10.88q-5.34,68.9-6.68,138l-45-2.69q.51-26.67,1.59-53.32L356.17,181q-1.11,27.4-1.64,54.82l-45-2.69Q311.18,153.8,317.29,74.64ZM442,105.1l77.92,19q-1.56,20.24-2.75,40.49l-33.49-6.1c-.14,2.29-.27,4.57-.39,6.86L510.37,170q-.78,14.53-1.4,29.09l-27.1-3.48c-.1,2.4-.2,4.81-.29,7.21l35.7,4.21q-.72,19.2-1.09,38.41l-80.73-4.83Q436.78,172.8,442,105.1Zm91.14,22.23,44.52,10.92q-2.78,35.64-4.2,71.33l33.73,4.21q-.74,18.47-1.05,37.06l-78.77-4.72Q528.51,186.69,533.17,127.33Zm89.69,21.92,44.57,10.88q-2.37,30.33-3.58,60.7L697.59,225q-.63,15.61-.92,31.25l-78.77-4.72Q618.88,200.34,622.86,149.25Zm89.74,21.9,77.92,19q-.93,11.94-1.62,23.89L755.4,208c-.08,1.39-.16,2.78-.23,4.18l27,4.65q-.48,8.64-.83,17.27l-27.11-3.48c-.06,1.47-.12,2.94-.17,4.4l35.7,4.22q-.42,11.3-.64,22.61L708.39,257Q709.28,214,712.6,171.15ZM1.17,355.85l48-2.88q6.34,47.49,14,94h.3q2.4-48,6.11-95.2L99.91,350q5.4,45.41,12,90h.3q3.39-46,8-91.18l43.45-2.6Q149.38,439.71,140.77,539l-39.33,9.6Q93.81,511.17,87,473.06l-.31.05q-2.43,39.7-4,80l-39.48,9.63Q19.31,462.32,1.17,355.85Zm174,90q-2.55-50.07-3.52-100.19l45-2.69q.9,45.45,3.13,90.88c.81,16.49,4.83,27.52,15.18,25.57,9.92-1.86,12.76-12.37,11.9-29.53q-2.19-44.25-3-88.55l40.43-2.42q.85,44.06,3.09,88.1c1.28,25-1.85,41.53-6.83,53.25a65.34,65.34,0,0,1-44.23,38c-19,4.73-36.54-.87-47.44-17.64C182.73,491.3,176.76,475.77,175.17,445.82ZM297.39,338.1,376,333.39q.48,24.48,1.42,48.95l-33.59,4.07.33,8.21,27.1-3.54Q372,408.6,373,426.13l-27.05,4.72q.24,4.32.5,8.63L382,432.9q1.38,23.18,3.15,46.35l-80,19.54Q298.93,418.54,297.39,338.1Zm91.89-5.51L433,330c16.5-1,51.07-.84,52,29.15.36,10.67-3.59,21-15.39,27.72v.36c16.12,4.73,20.32,15.85,21,27.17,2.06,32.92-27.81,45.81-48.95,51.06l-45.47,11.1Q390.68,404.65,389.28,332.59Zm48.34,52.25c5.72-.78,8.27-4.84,8.09-9.46-.19-4.8-3.17-8-8.75-7.39l-1.66.19q.3,8.43.66,16.88Zm2.62,44.09c7.05-1.39,10.07-6.63,9.74-12.34s-4-9.73-10.94-8.6l-2,.32q.56,10.5,1.21,21Zm56.64-102.78,43.76-2.62c16.49-1,51.08-1.14,51.88,24.16.3,9-3.71,17.8-15.55,23.8v.3c16.07,3.67,20.18,12.95,20.75,22.52,1.74,27.75-28.23,39.84-49.36,45.09l-45.47,11.1Q498.08,388.4,496.88,326.15ZM545,370.43c5.72-.78,8.29-4.3,8.14-8.24-.17-4.1-3.13-6.78-8.71-6.17l-1.66.19q.25,7.21.57,14.44Zm2.28,37.71c7-1.39,10.11-6,9.83-10.82s-3.91-8.22-10.86-7.07l-2,.32q.47,9,1,18Zm57.22-88.44L683.09,315q.3,15.13.87,30.25l-33.59,4.07.21,5.2,27.1-3.55q.48,10.89,1.07,21.77l-27,4.73c.1,1.82.21,3.64.32,5.47l35.59-6.59q.84,14.3,1.95,28.59l-80,19.53Q605.48,372.16,604.47,319.7Zm91.9-5.45,40.89-2.45q16.4,16.24,33.15,30l.3-.14q-.69-15.89-1-31.79l40.46-2.49q.65,33.69,3.27,67.31l-40.54,9.9A427.92,427.92,0,0,1,738.8,358l-.29.16q.9,17.16,2.24,34.3l-40.12,9.81Q697.18,358.26,696.37,314.25Z"/></g></g></svg>